<?xml version="1.0" encoding="UTF-8"?>
<svg xmlns="http://www.w3.org/2000/svg" viewBox="0 0 2155 680" preserveAspectRatio="xMidYMid meet">
  <defs>
    <style>
  .wall{fill:none;stroke:#4a4a4a;stroke-width:3;stroke-linecap:round}
  .inner-wall{fill:none;stroke:#6a6a6a;stroke-width:1.5;stroke-linecap:round}
  .room{fill:#F5F5F5;stroke:#BDBDBD;stroke-width:1;cursor:pointer;transition:fill .2s}
  .room:hover{fill:#EEEEEE}
  .room.active{fill:#E0E0E0;stroke:#757575;stroke-width:2}
  .corridor{fill:#f5f5f5;stroke:#ddd;stroke-width:1}
  .stairs{fill:#e8e8e8;stroke:#aaa;stroke-width:1}
  .toilet{fill:#E0F2F1;stroke:#4DB6AC;stroke-width:1.5;cursor:pointer;transition:fill .2s}
  .toilet:hover{fill:#B2DFDB}
  .toilet.active{fill:#80CBC4;stroke:#00897B;stroke-width:2}
  .special{fill:#FCE4EC;stroke:#F48FB1;stroke-width:1.5;cursor:pointer;transition:fill .2s}
  .special:hover{fill:#F8BBD0}
  .special.active{fill:#F48FB1;stroke:#C2185B;stroke-width:2}
  .service{fill:#fff3e0;stroke:#ffb74d;stroke-width:1}
  .label{font-family:'Segoe UI',Arial,sans-serif;font-size:15px;fill:#333;text-anchor:middle;dominant-baseline:middle;pointer-events:none;paint-order:stroke;stroke:white;stroke-width:6px;stroke-linejoin:round}
  .room-num{font-family:'Segoe UI',Arial,sans-serif;font-size:24px;fill:#222;text-anchor:middle;dominant-baseline:middle;pointer-events:none;font-weight:800;paint-order:stroke;stroke:white;stroke-width:8px;stroke-linejoin:round}
  .dept-label{font-family:'Segoe UI',Arial,sans-serif;font-size:13px;fill:#444;text-anchor:middle;dominant-baseline:middle;pointer-events:none;paint-order:stroke;stroke:white;stroke-width:5px;stroke-linejoin:round}
  .floor-label{font-family:'Segoe UI',Arial,sans-serif;font-size:18px;fill:#333;font-weight:800}
  .door{fill:#fff;stroke:#999;stroke-width:1}
  .atif-color{fill:#E3F2FD;stroke:#1565C0;stroke-width:1.5;cursor:pointer;transition:fill .2s}
  .atif-color:hover{fill:#BBDEFB}
  .atif-color.active{fill:#90CAF9;stroke:#1565C0;stroke-width:2}
  .itsu-color{fill:#E8F5E9;stroke:#2E7D32;stroke-width:1.5;cursor:pointer;transition:fill .2s}
  .itsu-color:hover{fill:#C8E6C9}
  .itsu-color.active{fill:#A5D6A7;stroke:#2E7D32;stroke-width:2}
  .ino-color{fill:#F3E5F5;stroke:#6A1B9A;stroke-width:1.5;cursor:pointer;transition:fill .2s}
  .ino-color:hover{fill:#E1BEE7}
  .ino-color.active{fill:#CE93D8;stroke:#6A1B9A;stroke-width:2}
  .lab-color{fill:#FFF8E1;stroke:#F9A825;stroke-width:1.5;cursor:pointer;transition:fill .2s}
  .lab-color:hover{fill:#FFECB3}
  .lab-color.active{fill:#FFD54F;stroke:#F9A825;stroke-width:2}
  .tech-color{fill:#ECEFF1;stroke:#546E7A;stroke-width:1.5;cursor:pointer;transition:fill .2s}
  .tech-color:hover{fill:#CFD8DC}
  .tech-color.active{fill:#B0BEC5;stroke:#546E7A;stroke-width:2}
  
    </style>
  </defs>

  <rect width="2155" height="680" fill="white"/>
  <text x="20" y="25" class="floor-label">5 этаж</text>

  <!-- КОРИДОР -->
  <rect x="10" y="270" width="2135" height="80" class="corridor" rx="2"/>
  <text x="1077.5" y="310" class="label" style="font-size:16px;fill:#aaa">К О Р И Д О Р</text>

  <!-- ВЕРХНИЙ РЯД (НЕЧЁТНЫЕ) -->
  <rect x="10.0" y="50" width="128.2" height="220" class="room lab-color" data-room="501" data-type="lab" rx="2"/>
  <text x="74.1" y="150" class="room-num">501</text>
  <text x="74.1" y="168" class="dept-label" style="fill:#E65100;font-size:13px">Лаб. станков</text>
  <text x="74.1" y="180" class="dept-label" style="fill:#E65100;font-size:13px">и инструментов</text>
  <rect x="65.6" y="268" width="17.0" height="5" class="door"/>
  <rect x="138.2" y="50" width="128.2" height="220" class="room lab-color" data-room="503" data-type="lab" rx="2"/>
  <text x="202.3" y="150" class="room-num">503</text>
  <text x="202.3" y="168" class="dept-label" style="fill:#E65100;font-size:13px">Лаб. сварочных</text>
  <text x="202.3" y="180" class="dept-label" style="fill:#E65100;font-size:13px">технологий</text>
  <rect x="193.8" y="268" width="17.0" height="5" class="door"/>
  <rect x="266.4" y="50" width="128.2" height="220" class="room lab-color" data-room="505" data-type="lab" rx="2"/>
  <text x="330.5" y="150" class="room-num">505</text>
  <text x="330.5" y="168" class="dept-label" style="fill:#E65100;font-size:13px">Лаб. литейного</text>
  <text x="330.5" y="180" class="dept-label" style="fill:#E65100;font-size:13px">производства</text>
  <rect x="322.0" y="268" width="17.0" height="5" class="door"/>
  <rect x="394.6" y="50" width="128.2" height="220" class="room lab-color" data-room="507" data-type="lab" rx="2"/>
  <text x="458.7" y="150" class="room-num">507</text>
  <text x="458.7" y="168" class="dept-label" style="fill:#E65100;font-size:13px">Лаб. испытаний</text>
  <text x="458.7" y="180" class="dept-label" style="fill:#E65100;font-size:13px">авиац. двигат.</text>
  <rect x="450.2" y="268" width="17.0" height="5" class="door"/>
  <rect x="522.8" y="50" width="128.2" height="220" class="room lab-color" data-room="509" data-type="lab" rx="2"/>
  <text x="586.9" y="150" class="room-num">509</text>
  <text x="586.9" y="168" class="dept-label" style="fill:#E65100;font-size:13px">Лаб. электроники</text>
  <text x="586.9" y="180" class="dept-label" style="fill:#E65100;font-size:13px">и радиоэлектр.</text>
  <rect x="578.5" y="268" width="17.0" height="5" class="door"/>
  <rect x="651.0" y="50" width="128.2" height="220" class="room lab-color" data-room="511" data-type="lab" rx="2"/>
  <text x="715.1" y="150" class="room-num">511</text>
  <text x="715.1" y="168" class="dept-label" style="fill:#E65100;font-size:13px">Компьютерный</text>
  <text x="715.1" y="180" class="dept-label" style="fill:#E65100;font-size:13px">класс</text>
  <rect x="706.7" y="268" width="17.0" height="5" class="door"/>
  <rect x="779.2" y="50" width="128.2" height="220" class="room tech-color" data-room="513" data-type="tech" rx="2"/>
  <text x="843.3" y="150" class="room-num">513</text>
  <text x="843.3" y="172" class="dept-label" style="fill:#37474F;font-size:13px">Серверная</text>
  <rect x="834.9" y="268" width="17.0" height="5" class="door"/>
  <rect x="907.4" y="50" width="128.2" height="220" class="room lab-color" data-room="515" data-type="lab" rx="2"/>
  <text x="971.5" y="150" class="room-num">515</text>
  <text x="971.5" y="168" class="dept-label" style="fill:#E65100;font-size:13px">Лаб. оптики</text>
  <text x="971.5" y="180" class="dept-label" style="fill:#E65100;font-size:13px">и физики</text>
  <rect x="963.1" y="268" width="17.0" height="5" class="door"/>
  <rect x="1035.6" y="50" width="128.2" height="220" class="room lab-color" data-room="517" data-type="lab" rx="2"/>
  <text x="1099.8" y="150" class="room-num">517</text>
  <text x="1099.8" y="168" class="dept-label" style="fill:#E65100;font-size:13px">Лаб. испытания</text>
  <text x="1099.8" y="180" class="dept-label" style="fill:#E65100;font-size:13px">материалов</text>
  <rect x="1091.3" y="268" width="17.0" height="5" class="door"/>
  <rect x="1163.9" y="50" width="128.2" height="220" class="room lab-color" data-room="519" data-type="lab" rx="2"/>
  <text x="1228.0" y="150" class="room-num">519</text>
  <text x="1228.0" y="168" class="dept-label" style="fill:#E65100;font-size:13px">Лаб. термодин.</text>
  <text x="1228.0" y="180" class="dept-label" style="fill:#E65100;font-size:13px">и теплопер.</text>
  <rect x="1219.5" y="268" width="17.0" height="5" class="door"/>
  <rect x="1292.1" y="50" width="128.2" height="220" class="room lab-color" data-room="521" data-type="lab" rx="2"/>
  <text x="1356.2" y="150" class="room-num">521</text>
  <text x="1356.2" y="172" class="dept-label" style="fill:#E65100;font-size:13px">Аудитория</text>
  <rect x="1347.7" y="268" width="17.0" height="5" class="door"/>
  <rect x="1420.3" y="50" width="128.2" height="220" class="room lab-color" data-room="523" data-type="lab" rx="2"/>
  <text x="1484.4" y="150" class="room-num">523</text>
  <text x="1484.4" y="172" class="dept-label" style="fill:#E65100;font-size:13px">Аудитория</text>
  <rect x="1475.9" y="268" width="17.0" height="5" class="door"/>
  <rect x="1548.5" y="50" width="87.9" height="220" class="toilet" data-type="toilet" rx="2"/>
  <text x="1592.4" y="160" class="dept-label" style="fill:#00695C;font-size:15px;font-weight:600">Туалет</text>
  <rect x="1584.0" y="268" width="17.0" height="5" class="door"/>
  <rect x="1636.4" y="50" width="128.2" height="220" class="room lab-color" data-room="525" data-type="lab" rx="2"/>
  <text x="1700.5" y="150" class="room-num">525</text>
  <text x="1700.5" y="172" class="dept-label" style="fill:#E65100;font-size:13px">Лаб. САПР</text>
  <rect x="1692.0" y="268" width="17.0" height="5" class="door"/>
  <rect x="1764.6" y="50" width="128.2" height="220" class="room tech-color" data-room="527" data-type="tech" rx="2"/>
  <text x="1828.7" y="150" class="room-num">527</text>
  <text x="1828.7" y="168" class="dept-label" style="fill:#37474F;font-size:13px">Архив /</text>
  <text x="1828.7" y="180" class="dept-label" style="fill:#37474F;font-size:13px">Хранилище</text>
  <rect x="1820.2" y="268" width="17.0" height="5" class="door"/>
  <rect x="1892.8" y="50" width="128.2" height="220" class="room tech-color" data-room="529" data-type="tech" rx="2"/>
  <text x="1956.9" y="150" class="room-num">529</text>
  <text x="1956.9" y="168" class="dept-label" style="fill:#37474F;font-size:13px">Технические</text>
  <text x="1956.9" y="180" class="dept-label" style="fill:#37474F;font-size:13px">помещения</text>
  <rect x="1948.5" y="268" width="17.0" height="5" class="door"/>
  <rect x="2021.0" y="50" width="124.0" height="220" class="room lab-color" data-room="531" data-type="lab" rx="2"/>
  <text x="2083.0" y="150" class="room-num">531</text>
  <text x="2083.0" y="172" class="dept-label" style="fill:#E65100;font-size:13px">Аудитория</text>
  <rect x="2074.5" y="268" width="17.0" height="5" class="door"/>

  <!-- НИЖНИЙ РЯД (ЧЁТНЫЕ) -->
  <rect x="10.0" y="350" width="108" height="220" class="room lab-color" data-room="500" data-type="lab" rx="2"/>
  <text x="64.0" y="450" class="room-num">500</text>
  <text x="64.0" y="472" class="dept-label" style="fill:#E65100;font-size:13px">Аудитория</text>
  <rect x="56.0" y="347" width="16" height="5" class="door"/>
  <rect x="118.0" y="350" width="108" height="220" class="room lab-color" data-room="502" data-type="lab" rx="2"/>
  <text x="172.0" y="450" class="room-num">502</text>
  <text x="172.0" y="472" class="dept-label" style="fill:#E65100;font-size:13px">Аудитория</text>
  <rect x="164.0" y="347" width="16" height="5" class="door"/>
  <rect x="226.0" y="350" width="108" height="220" class="room lab-color" data-room="504" data-type="lab" rx="2"/>
  <text x="280.0" y="450" class="room-num">504</text>
  <text x="280.0" y="472" class="dept-label" style="fill:#E65100;font-size:13px">Аудитория</text>
  <rect x="272.0" y="347" width="16" height="5" class="door"/>
  <rect x="334.0" y="350" width="108" height="220" class="room lab-color" data-room="506" data-type="lab" rx="2"/>
  <text x="388.0" y="450" class="room-num">506</text>
  <text x="388.0" y="472" class="dept-label" style="fill:#E65100;font-size:13px">Аудитория</text>
  <rect x="380.0" y="347" width="16" height="5" class="door"/>
  <rect x="442.0" y="350" width="108" height="220" class="room lab-color" data-room="508" data-type="lab" rx="2"/>
  <text x="496.0" y="450" class="room-num">508</text>
  <text x="496.0" y="472" class="dept-label" style="fill:#E65100;font-size:13px">Аудитория</text>
  <rect x="488.0" y="347" width="16" height="5" class="door"/>
  <rect x="610" y="350" width="74" height="220" class="toilet" data-type="toilet" rx="2"/>
  <text x="647" y="460" class="dept-label" style="fill:#00695C;font-size:15px;font-weight:600">Туалет</text>
  <rect x="639" y="347" width="16" height="5" class="door"/>
  <rect x="684" y="350" width="108" height="220" class="room lab-color" data-room="510" data-type="lab" rx="2"/>
  <text x="738" y="450" class="room-num">510</text>
  <text x="738" y="472" class="dept-label" style="fill:#E65100;font-size:13px">Аудитория</text>
  <rect x="730" y="347" width="16" height="5" class="door"/>
  <rect x="792" y="350" width="121" height="220" class="room lab-color" data-room="512" data-type="lab" rx="2"/>
  <text x="852.5" y="450" class="room-num">512</text>
  <text x="852.5" y="472" class="dept-label" style="fill:#E65100;font-size:13px">Комп. класс</text>
  <rect x="844.5" y="347" width="16" height="5" class="door"/>
  <rect x="913" y="350" width="148" height="220" class="room tech-color" data-room="514" data-type="tech" rx="2"/>
  <text x="987" y="450" class="room-num">514</text>
  <text x="987" y="468" class="dept-label" style="fill:#37474F;font-size:13px">Вычислит.</text>
  <text x="987" y="480" class="dept-label" style="fill:#37474F;font-size:13px">центр</text>
  <rect x="979" y="347" width="16" height="5" class="door"/>
  <rect x="1061" y="350" width="121" height="220" class="room lab-color" data-room="516" data-type="lab" rx="2"/>
  <text x="1121.5" y="450" class="room-num">516</text>
  <text x="1121.5" y="472" class="dept-label" style="fill:#E65100;font-size:13px">Аудитория</text>
  <rect x="1113.5" y="347" width="16" height="5" class="door"/>
  <rect x="1182" y="350" width="108" height="220" class="room lab-color" data-room="518" data-type="lab" rx="2"/>
  <text x="1236" y="450" class="room-num">518</text>
  <text x="1236" y="472" class="dept-label" style="fill:#E65100;font-size:13px">Аудитория</text>
  <rect x="1228" y="347" width="16" height="5" class="door"/>
  <rect x="1290" y="350" width="121" height="220" class="room lab-color" data-room="520" data-type="lab" rx="2"/>
  <text x="1350.5" y="450" class="room-num">520</text>
  <text x="1350.5" y="468" class="dept-label" style="fill:#E65100;font-size:13px">Лаб. робото-</text>
  <text x="1350.5" y="480" class="dept-label" style="fill:#E65100;font-size:13px">техники</text>
  <rect x="1342.5" y="347" width="16" height="5" class="door"/>
  <rect x="1471" y="350" width="108" height="220" class="room lab-color" data-room="522" data-type="lab" rx="2"/>
  <text x="1525.0" y="450" class="room-num">522</text>
  <text x="1525.0" y="472" class="dept-label" style="fill:#E65100;font-size:13px">Аудитория</text>
  <rect x="1517.0" y="347" width="16" height="5" class="door"/>
  <rect x="1579.0" y="350" width="121" height="220" class="room lab-color" data-room="524" data-type="lab" rx="2"/>
  <text x="1639.5" y="450" class="room-num">524</text>
  <text x="1639.5" y="472" class="dept-label" style="fill:#E65100;font-size:13px">Аудитория</text>
  <rect x="1631.5" y="347" width="16" height="5" class="door"/>
  <rect x="1700.0" y="350" width="121" height="220" class="room lab-color" data-room="526" data-type="lab" rx="2"/>
  <text x="1760.5" y="450" class="room-num">526</text>
  <text x="1760.5" y="468" class="dept-label" style="fill:#E65100;font-size:13px">Лаб. автомати-</text>
  <text x="1760.5" y="480" class="dept-label" style="fill:#E65100;font-size:13px">зации</text>
  <rect x="1752.5" y="347" width="16" height="5" class="door"/>
  <rect x="1821.0" y="350" width="108" height="220" class="room tech-color" data-room="528" data-type="tech" rx="2"/>
  <text x="1875.0" y="450" class="room-num">528</text>
  <text x="1875.0" y="468" class="dept-label" style="fill:#37474F;font-size:13px">Кладовая /</text>
  <text x="1875.0" y="480" class="dept-label" style="fill:#37474F;font-size:13px">Подсобка</text>
  <rect x="1867.0" y="347" width="16" height="5" class="door"/>
  <rect x="1929.0" y="350" width="108" height="220" class="room tech-color" data-room="530" data-type="tech" rx="2"/>
  <text x="1983.0" y="450" class="room-num">530</text>
  <text x="1983.0" y="468" class="dept-label" style="fill:#37474F;font-size:13px">Технич.</text>
  <text x="1983.0" y="480" class="dept-label" style="fill:#37474F;font-size:13px">помещение</text>
  <rect x="1975.0" y="347" width="16" height="5" class="door"/>
  <rect x="2037.0" y="350" width="108" height="220" class="room lab-color" data-room="532" data-type="lab" rx="2"/>
  <text x="2091.0" y="450" class="room-num">532</text>
  <text x="2091.0" y="472" class="dept-label" style="fill:#E65100;font-size:13px">Аудитория</text>
  <rect x="2083.0" y="347" width="16" height="5" class="door"/>


  <!-- ЛЕСТНИЦЫ -->
  <rect x="550" y="350" width="60" height="220" class="stairs" data-type="stairs" rx="3"/>
  <text x="580" y="460" class="label" style="font-size:14px;fill:#666;transform:rotate(-90deg);transform-origin:580px 460px;transform-box:view-box">Лестница</text>
  <line x1="555" y1="380" x2="605" y2="380" stroke="#bbb" stroke-width="0.5"/>
  <line x1="555" y1="410" x2="605" y2="410" stroke="#bbb" stroke-width="0.5"/>
  <line x1="555" y1="440" x2="605" y2="440" stroke="#bbb" stroke-width="0.5"/>
  <line x1="555" y1="470" x2="605" y2="470" stroke="#bbb" stroke-width="0.5"/>
  <line x1="555" y1="500" x2="605" y2="500" stroke="#bbb" stroke-width="0.5"/>
  <line x1="555" y1="530" x2="605" y2="530" stroke="#bbb" stroke-width="0.5"/>
  <rect x="1411" y="350" width="60" height="220" class="stairs" data-type="stairs" rx="3"/>
  <text x="1441" y="460" class="label" style="font-size:14px;fill:#666;transform:rotate(-90deg);transform-origin:1441px 460px;transform-box:view-box">Лестница</text>
  <line x1="1416" y1="380" x2="1466" y2="380" stroke="#bbb" stroke-width="0.5"/>
  <line x1="1416" y1="410" x2="1466" y2="410" stroke="#bbb" stroke-width="0.5"/>
  <line x1="1416" y1="440" x2="1466" y2="440" stroke="#bbb" stroke-width="0.5"/>
  <line x1="1416" y1="470" x2="1466" y2="470" stroke="#bbb" stroke-width="0.5"/>
  <line x1="1416" y1="500" x2="1466" y2="500" stroke="#bbb" stroke-width="0.5"/>
  <line x1="1416" y1="530" x2="1466" y2="530" stroke="#bbb" stroke-width="0.5"/>

  <!-- СТЕНЫ -->
  <rect x="8" y="48" width="2139" height="524" class="wall" rx="4"/>
  <line x1="10" y1="270" x2="2145" y2="270" class="inner-wall"/>
  <line x1="10" y1="350" x2="2145" y2="350" class="inner-wall"/>
  <line x1="138.2" y1="50" x2="138.2" y2="270" class="inner-wall"/>
  <line x1="266.4" y1="50" x2="266.4" y2="270" class="inner-wall"/>
  <line x1="394.6" y1="50" x2="394.6" y2="270" class="inner-wall"/>
  <line x1="522.8" y1="50" x2="522.8" y2="270" class="inner-wall"/>
  <line x1="651.0" y1="50" x2="651.0" y2="270" class="inner-wall"/>
  <line x1="779.2" y1="50" x2="779.2" y2="270" class="inner-wall"/>
  <line x1="907.4" y1="50" x2="907.4" y2="270" class="inner-wall"/>
  <line x1="1035.6" y1="50" x2="1035.6" y2="270" class="inner-wall"/>
  <line x1="1163.9" y1="50" x2="1163.9" y2="270" class="inner-wall"/>
  <line x1="1292.1" y1="50" x2="1292.1" y2="270" class="inner-wall"/>
  <line x1="1420.3" y1="50" x2="1420.3" y2="270" class="inner-wall"/>
  <line x1="1548.5" y1="50" x2="1548.5" y2="270" class="inner-wall"/>
  <line x1="1636.4" y1="50" x2="1636.4" y2="270" class="inner-wall"/>
  <line x1="1764.6" y1="50" x2="1764.6" y2="270" class="inner-wall"/>
  <line x1="1892.8" y1="50" x2="1892.8" y2="270" class="inner-wall"/>
  <line x1="2021.0" y1="50" x2="2021.0" y2="270" class="inner-wall"/>
  <line x1="118.0" y1="350" x2="118.0" y2="570" class="inner-wall"/>
  <line x1="226.0" y1="350" x2="226.0" y2="570" class="inner-wall"/>
  <line x1="334.0" y1="350" x2="334.0" y2="570" class="inner-wall"/>
  <line x1="442.0" y1="350" x2="442.0" y2="570" class="inner-wall"/>
  <line x1="610" y1="350" x2="610" y2="570" class="inner-wall"/>
  <line x1="684" y1="350" x2="684" y2="570" class="inner-wall"/>
  <line x1="792" y1="350" x2="792" y2="570" class="inner-wall"/>
  <line x1="913" y1="350" x2="913" y2="570" class="inner-wall"/>
  <line x1="1061" y1="350" x2="1061" y2="570" class="inner-wall"/>
  <line x1="1182" y1="350" x2="1182" y2="570" class="inner-wall"/>
  <line x1="1290" y1="350" x2="1290" y2="570" class="inner-wall"/>
  <line x1="1411" y1="350" x2="1411" y2="570" class="inner-wall"/>
  <line x1="1579.0" y1="350" x2="1579.0" y2="570" class="inner-wall"/>
  <line x1="1700.0" y1="350" x2="1700.0" y2="570" class="inner-wall"/>
  <line x1="1821.0" y1="350" x2="1821.0" y2="570" class="inner-wall"/>
  <line x1="1929.0" y1="350" x2="1929.0" y2="570" class="inner-wall"/>
  <line x1="2037.0" y1="350" x2="2037.0" y2="570" class="inner-wall"/>

  <line x1="550" y1="350" x2="550" y2="570" class="inner-wall"/>
  <line x1="1471" y1="350" x2="1471" y2="570" class="inner-wall"/>

</svg>