<?xml version="1.0" encoding="UTF-8"?>
<svg xmlns="http://www.w3.org/2000/svg" viewBox="0 0 2155 680" preserveAspectRatio="xMidYMid meet">
  <defs>
    <style>
  .wall{fill:none;stroke:#4a4a4a;stroke-width:3;stroke-linecap:round}
  .inner-wall{fill:none;stroke:#6a6a6a;stroke-width:1.5;stroke-linecap:round}
  .room{fill:#F5F5F5;stroke:#BDBDBD;stroke-width:1;cursor:pointer;transition:fill .2s}
  .room:hover{fill:#EEEEEE}
  .room.active{fill:#E0E0E0;stroke:#757575;stroke-width:2}
  .corridor{fill:#f5f5f5;stroke:#ddd;stroke-width:1}
  .stairs{fill:#e8e8e8;stroke:#aaa;stroke-width:1}
  .toilet{fill:#E0F2F1;stroke:#4DB6AC;stroke-width:1.5;cursor:pointer;transition:fill .2s}
  .toilet:hover{fill:#B2DFDB}
  .toilet.active{fill:#80CBC4;stroke:#00897B;stroke-width:2}
  .special{fill:#FCE4EC;stroke:#F48FB1;stroke-width:1.5;cursor:pointer;transition:fill .2s}
  .special:hover{fill:#F8BBD0}
  .special.active{fill:#F48FB1;stroke:#C2185B;stroke-width:2}
  .service{fill:#fff3e0;stroke:#ffb74d;stroke-width:1}
  .label{font-family:'Segoe UI',Arial,sans-serif;font-size:15px;fill:#333;text-anchor:middle;dominant-baseline:middle;pointer-events:none;paint-order:stroke;stroke:white;stroke-width:6px;stroke-linejoin:round}
  .room-num{font-family:'Segoe UI',Arial,sans-serif;font-size:24px;fill:#222;text-anchor:middle;dominant-baseline:middle;pointer-events:none;font-weight:800;paint-order:stroke;stroke:white;stroke-width:8px;stroke-linejoin:round}
  .dept-label{font-family:'Segoe UI',Arial,sans-serif;font-size:13px;fill:#444;text-anchor:middle;dominant-baseline:middle;pointer-events:none;paint-order:stroke;stroke:white;stroke-width:5px;stroke-linejoin:round}
  .floor-label{font-family:'Segoe UI',Arial,sans-serif;font-size:18px;fill:#333;font-weight:800}
  .door{fill:#fff;stroke:#999;stroke-width:1}
  .atif-color{fill:#E3F2FD;stroke:#1565C0;stroke-width:1.5;cursor:pointer;transition:fill .2s}
  .atif-color:hover{fill:#BBDEFB}
  .atif-color.active{fill:#90CAF9;stroke:#1565C0;stroke-width:2}
  .itsu-color{fill:#E8F5E9;stroke:#2E7D32;stroke-width:1.5;cursor:pointer;transition:fill .2s}
  .itsu-color:hover{fill:#C8E6C9}
  .itsu-color.active{fill:#A5D6A7;stroke:#2E7D32;stroke-width:2}
  .ino-color{fill:#F3E5F5;stroke:#6A1B9A;stroke-width:1.5;cursor:pointer;transition:fill .2s}
  .ino-color:hover{fill:#E1BEE7}
  .ino-color.active{fill:#CE93D8;stroke:#6A1B9A;stroke-width:2}
  .lab-color{fill:#FFF8E1;stroke:#F9A825;stroke-width:1.5;cursor:pointer;transition:fill .2s}
  .lab-color:hover{fill:#FFECB3}
  .lab-color.active{fill:#FFD54F;stroke:#F9A825;stroke-width:2}
  .tech-color{fill:#ECEFF1;stroke:#546E7A;stroke-width:1.5;cursor:pointer;transition:fill .2s}
  .tech-color:hover{fill:#CFD8DC}
  .tech-color.active{fill:#B0BEC5;stroke:#546E7A;stroke-width:2}
  
    </style>
  </defs>

  <rect width="2155" height="680" fill="white"/>
  <text x="20" y="25" class="floor-label">4 этаж</text>

  <!-- КОРИДОР -->
  <rect x="10" y="270" width="2135" height="80" class="corridor" rx="2"/>
  <text x="1077.5" y="310" class="label" style="font-size:16px;fill:#aaa">К О Р И Д О Р</text>

  <!-- ВЕРХНИЙ РЯД (НЕЧЁТНЫЕ) -->
  <rect x="10.0" y="50" width="144.1" height="220" class="room itsu-color" data-room="401" data-type="itsu" rx="2"/>
  <text x="82.0" y="150" class="room-num">401</text>
  <text x="82.0" y="168" class="dept-label" style="fill:#2E7D32;font-size:13px">Инжиниринговый</text>
  <text x="82.0" y="180" class="dept-label" style="fill:#2E7D32;font-size:13px">центр</text>
  <rect x="73.6" y="268" width="17.0" height="5" class="door"/>
  <rect x="154.1" y="50" width="144.1" height="220" class="room itsu-color" data-room="403" data-type="itsu" rx="2"/>
  <text x="226.1" y="150" class="room-num">403</text>
  <text x="226.1" y="168" class="dept-label" style="fill:#2E7D32;font-size:13px">Центр «Цифр.</text>
  <text x="226.1" y="180" class="dept-label" style="fill:#2E7D32;font-size:13px">платформа»</text>
  <rect x="217.7" y="268" width="17.0" height="5" class="door"/>
  <rect x="298.2" y="50" width="96.4" height="220" class="room itsu-color" data-room="405" data-type="itsu" rx="2"/>
  <text x="346.4" y="150" class="room-num">405</text>
  <text x="346.4" y="172" class="dept-label" style="fill:#2E7D32;font-size:13px">Упр. НИР</text>
  <rect x="337.9" y="268" width="17.0" height="5" class="door"/>
  <rect x="394.6" y="50" width="144.1" height="220" class="room itsu-color" data-room="407" data-type="itsu" rx="2"/>
  <text x="466.7" y="150" class="room-num">407</text>
  <text x="466.7" y="168" class="dept-label" style="fill:#2E7D32;font-size:13px">Каф. экономики</text>
  <text x="466.7" y="180" class="dept-label" style="fill:#2E7D32;font-size:13px">и менеджмента</text>
  <rect x="458.2" y="268" width="17.0" height="5" class="door"/>
  <rect x="538.7" y="50" width="144.1" height="220" class="room itsu-color" data-room="409" data-type="itsu" rx="2"/>
  <text x="610.8" y="150" class="room-num">409</text>
  <text x="610.8" y="168" class="dept-label" style="fill:#2E7D32;font-size:13px">Каф. вычислит.</text>
  <text x="610.8" y="180" class="dept-label" style="fill:#2E7D32;font-size:13px">систем</text>
  <rect x="602.3" y="268" width="17.0" height="5" class="door"/>
  <rect x="682.8" y="50" width="144.1" height="220" class="room itsu-color" data-room="411" data-type="itsu" rx="2"/>
  <text x="754.9" y="150" class="room-num">411</text>
  <text x="754.9" y="168" class="dept-label" style="fill:#2E7D32;font-size:13px">Каф. мат. и прогр.</text>
  <text x="754.9" y="180" class="dept-label" style="fill:#2E7D32;font-size:13px">обеспеч. ЭВС</text>
  <rect x="746.4" y="268" width="17.0" height="5" class="door"/>
  <rect x="826.9" y="50" width="144.1" height="220" class="room itsu-color" data-room="413" data-type="itsu" rx="2"/>
  <text x="899.0" y="150" class="room-num">413</text>
  <text x="899.0" y="168" class="dept-label" style="fill:#2E7D32;font-size:13px">Каф. электротехн.</text>
  <text x="899.0" y="180" class="dept-label" style="fill:#2E7D32;font-size:13px">и радиоэлектр.</text>
  <rect x="890.5" y="268" width="17.0" height="5" class="door"/>
  <rect x="971.0" y="50" width="144.1" height="220" class="room itsu-color" data-room="415" data-type="itsu" rx="2"/>
  <text x="1043.1" y="150" class="room-num">415</text>
  <text x="1043.1" y="168" class="dept-label" style="fill:#2E7D32;font-size:13px">Каф. высшей</text>
  <text x="1043.1" y="180" class="dept-label" style="fill:#2E7D32;font-size:13px">математики</text>
  <rect x="1034.6" y="268" width="17.0" height="5" class="door"/>
  <rect x="1115.1" y="50" width="96.4" height="220" class="room itsu-color" data-room="417" data-type="itsu" rx="2"/>
  <text x="1163.3" y="150" class="room-num">417</text>
  <text x="1163.3" y="172" class="dept-label" style="fill:#2E7D32;font-size:13px">Аудитория</text>
  <rect x="1154.8" y="268" width="17.0" height="5" class="door"/>
  <rect x="1211.5" y="50" width="96.4" height="220" class="room itsu-color" data-room="419" data-type="itsu" rx="2"/>
  <text x="1259.7" y="150" class="room-num">419</text>
  <text x="1259.7" y="172" class="dept-label" style="fill:#2E7D32;font-size:13px">Аудитория</text>
  <rect x="1251.3" y="268" width="17.0" height="5" class="door"/>
  <rect x="1308.0" y="50" width="96.4" height="220" class="room itsu-color" data-room="421" data-type="itsu" rx="2"/>
  <text x="1356.2" y="150" class="room-num">421</text>
  <text x="1356.2" y="172" class="dept-label" style="fill:#2E7D32;font-size:13px">Аудитория</text>
  <rect x="1347.7" y="268" width="17.0" height="5" class="door"/>
  <rect x="1404.4" y="50" width="96.4" height="220" class="room itsu-color" data-room="423" data-type="itsu" rx="2"/>
  <text x="1452.6" y="150" class="room-num">423</text>
  <text x="1452.6" y="172" class="dept-label" style="fill:#2E7D32;font-size:13px">Аудитория</text>
  <rect x="1444.1" y="268" width="17.0" height="5" class="door"/>
  <rect x="1500.8" y="50" width="96.4" height="220" class="room itsu-color" data-room="425" data-type="itsu" rx="2"/>
  <text x="1549.0" y="150" class="room-num">425</text>
  <text x="1549.0" y="172" class="dept-label" style="fill:#2E7D32;font-size:13px">Аудитория</text>
  <rect x="1540.5" y="268" width="17.0" height="5" class="door"/>
  <rect x="1597.2" y="50" width="96.4" height="220" class="room itsu-color" data-room="427" data-type="itsu" rx="2"/>
  <text x="1645.4" y="150" class="room-num">427</text>
  <text x="1645.4" y="172" class="dept-label" style="fill:#2E7D32;font-size:13px">Аудитория</text>
  <rect x="1636.9" y="268" width="17.0" height="5" class="door"/>
  <rect x="1693.6" y="50" width="65.7" height="220" class="toilet" data-type="toilet" rx="2"/>
  <text x="1726.5" y="160" class="dept-label" style="fill:#00695C;font-size:15px;font-weight:600">Туалет</text>
  <rect x="1718.0" y="268" width="17.0" height="5" class="door"/>
  <rect x="1759.3" y="50" width="96.4" height="220" class="room itsu-color" data-room="429" data-type="itsu" rx="2"/>
  <text x="1807.5" y="150" class="room-num">429</text>
  <text x="1807.5" y="172" class="dept-label" style="fill:#2E7D32;font-size:13px">Аудитория</text>
  <rect x="1799.1" y="268" width="17.0" height="5" class="door"/>
  <rect x="1855.7" y="50" width="96.4" height="220" class="room itsu-color" data-room="431" data-type="itsu" rx="2"/>
  <text x="1904.0" y="150" class="room-num">431</text>
  <text x="1904.0" y="172" class="dept-label" style="fill:#2E7D32;font-size:13px">Аудитория</text>
  <rect x="1895.5" y="268" width="17.0" height="5" class="door"/>
  <rect x="1952.2" y="50" width="96.4" height="220" class="room itsu-color" data-room="433" data-type="itsu" rx="2"/>
  <text x="2000.4" y="150" class="room-num">433</text>
  <text x="2000.4" y="172" class="dept-label" style="fill:#2E7D32;font-size:13px">Аудитория</text>
  <rect x="1991.9" y="268" width="17.0" height="5" class="door"/>
  <rect x="2048.6" y="50" width="96.4" height="220" class="room itsu-color" data-room="435" data-type="itsu" rx="2"/>
  <text x="2096.8" y="150" class="room-num">435</text>
  <text x="2096.8" y="172" class="dept-label" style="fill:#2E7D32;font-size:13px">Аудитория</text>
  <rect x="2088.3" y="268" width="17.0" height="5" class="door"/>

  <!-- НИЖНИЙ РЯД (ЧЁТНЫЕ) -->
  <rect x="10.0" y="350" width="95" height="220" class="room itsu-color" data-room="402" data-type="itsu" rx="2"/>
  <text x="57.5" y="450" class="room-num">402</text>
  <text x="57.5" y="472" class="dept-label" style="fill:#2E7D32;font-size:13px">Аудитория</text>
  <rect x="49.5" y="347" width="16" height="5" class="door"/>
  <rect x="105.0" y="350" width="95" height="220" class="room itsu-color" data-room="404" data-type="itsu" rx="2"/>
  <text x="152.5" y="450" class="room-num">404</text>
  <text x="152.5" y="472" class="dept-label" style="fill:#2E7D32;font-size:13px">Аудитория</text>
  <rect x="144.5" y="347" width="16" height="5" class="door"/>
  <rect x="200.0" y="350" width="95" height="220" class="room itsu-color" data-room="406" data-type="itsu" rx="2"/>
  <text x="247.5" y="450" class="room-num">406</text>
  <text x="247.5" y="472" class="dept-label" style="fill:#2E7D32;font-size:13px">Аудитория</text>
  <rect x="239.5" y="347" width="16" height="5" class="door"/>
  <rect x="295.0" y="350" width="95" height="220" class="room itsu-color" data-room="408" data-type="itsu" rx="2"/>
  <text x="342.5" y="450" class="room-num">408</text>
  <text x="342.5" y="472" class="dept-label" style="fill:#2E7D32;font-size:13px">Аудитория</text>
  <rect x="334.5" y="347" width="16" height="5" class="door"/>
  <rect x="450" y="350" width="65" height="220" class="toilet" data-type="toilet" rx="2"/>
  <text x="482.5" y="460" class="dept-label" style="fill:#00695C;font-size:15px;font-weight:600">Туалет</text>
  <rect x="474.5" y="347" width="16" height="5" class="door"/>
  <rect x="515" y="350" width="95" height="220" class="room itsu-color" data-room="410" data-type="itsu" rx="2"/>
  <text x="562.5" y="450" class="room-num">410</text>
  <text x="562.5" y="472" class="dept-label" style="fill:#2E7D32;font-size:13px">Аудитория</text>
  <rect x="554.5" y="347" width="16" height="5" class="door"/>
  <rect x="610" y="350" width="95" height="220" class="room itsu-color" data-room="412" data-type="itsu" rx="2"/>
  <text x="657.5" y="450" class="room-num">412</text>
  <text x="657.5" y="472" class="dept-label" style="fill:#2E7D32;font-size:13px">Комп. лаб.</text>
  <rect x="649.5" y="347" width="16" height="5" class="door"/>
  <rect x="705" y="350" width="95" height="220" class="room itsu-color" data-room="414" data-type="itsu" rx="2"/>
  <text x="752.5" y="450" class="room-num">414</text>
  <text x="752.5" y="472" class="dept-label" style="fill:#2E7D32;font-size:13px">Аудитория</text>
  <rect x="744.5" y="347" width="16" height="5" class="door"/>
  <rect x="800" y="350" width="95" height="220" class="room itsu-color" data-room="416" data-type="itsu" rx="2"/>
  <text x="847.5" y="450" class="room-num">416</text>
  <text x="847.5" y="472" class="dept-label" style="fill:#2E7D32;font-size:13px">Аудитория</text>
  <rect x="839.5" y="347" width="16" height="5" class="door"/>
  <rect x="895" y="350" width="95" height="220" class="room itsu-color" data-room="418" data-type="itsu" rx="2"/>
  <text x="942.5" y="450" class="room-num">418</text>
  <text x="942.5" y="472" class="dept-label" style="fill:#2E7D32;font-size:13px">Аудитория</text>
  <rect x="934.5" y="347" width="16" height="5" class="door"/>
  <rect x="990" y="350" width="143" height="220" class="room itsu-color" data-room="420" data-type="itsu" rx="2"/>
  <text x="1061.5" y="450" class="room-num">420</text>
  <text x="1061.5" y="468" class="dept-label" style="fill:#2E7D32;font-size:13px">Каф. высш.</text>
  <text x="1061.5" y="480" class="dept-label" style="fill:#2E7D32;font-size:13px">математики</text>
  <rect x="1053.5" y="347" width="16" height="5" class="door"/>
  <rect x="1133" y="350" width="143" height="220" class="room itsu-color" data-room="422" data-type="itsu" rx="2"/>
  <text x="1204.5" y="450" class="room-num">422</text>
  <text x="1204.5" y="468" class="dept-label" style="fill:#2E7D32;font-size:13px">Каф. иностр.</text>
  <text x="1204.5" y="480" class="dept-label" style="fill:#2E7D32;font-size:13px">языков</text>
  <rect x="1196.5" y="347" width="16" height="5" class="door"/>
  <rect x="1276" y="350" width="95" height="220" class="room itsu-color" data-room="424" data-type="itsu" rx="2"/>
  <text x="1323.5" y="450" class="room-num">424</text>
  <text x="1323.5" y="472" class="dept-label" style="fill:#2E7D32;font-size:13px">Комп. лаб.</text>
  <rect x="1315.5" y="347" width="16" height="5" class="door"/>
  <rect x="1371" y="350" width="143" height="220" class="room itsu-color" data-room="426" data-type="itsu" rx="2"/>
  <text x="1442.5" y="450" class="room-num">426</text>
  <text x="1442.5" y="468" class="dept-label" style="fill:#2E7D32;font-size:13px">Дирекция</text>
  <text x="1442.5" y="480" class="dept-label" style="fill:#2E7D32;font-size:13px">ИИТСУ</text>
  <rect x="1434.5" y="347" width="16" height="5" class="door"/>
  <rect x="1514" y="350" width="143" height="220" class="room itsu-color" data-room="428" data-type="itsu" rx="2"/>
  <text x="1645.5" y="450" class="room-num">428</text>
  <text x="1645.5" y="468" class="dept-label" style="fill:#2E7D32;font-size:13px">Каф. экономики</text>
  <text x="1645.5" y="480" class="dept-label" style="fill:#2E7D32;font-size:13px">и менеджм.</text>
  <rect x="1637.5" y="347" width="16" height="5" class="door"/>
  <rect x="1717.0" y="350" width="143" height="220" class="room itsu-color" data-room="430" data-type="itsu" rx="2"/>
  <text x="1788.5" y="450" class="room-num">430</text>
  <text x="1788.5" y="468" class="dept-label" style="fill:#2E7D32;font-size:13px">Каф. вычислит.</text>
  <text x="1788.5" y="480" class="dept-label" style="fill:#2E7D32;font-size:13px">систем</text>
  <rect x="1780.5" y="347" width="16" height="5" class="door"/>
  <rect x="1860.0" y="350" width="143" height="220" class="room itsu-color" data-room="432" data-type="itsu" rx="2"/>
  <text x="1931.5" y="450" class="room-num">432</text>
  <text x="1931.5" y="468" class="dept-label" style="fill:#2E7D32;font-size:13px">Каф. мат. и прогр.</text>
  <text x="1931.5" y="480" class="dept-label" style="fill:#2E7D32;font-size:13px">обеспеч. ЭВС</text>
  <rect x="1923.5" y="347" width="16" height="5" class="door"/>
  <rect x="2003.0" y="350" width="142" height="220" class="room itsu-color" data-room="434" data-type="itsu" rx="2"/>
  <text x="2074.0" y="450" class="room-num">434</text>
  <text x="2074.0" y="468" class="dept-label" style="fill:#2E7D32;font-size:13px">Каф. электротехн.</text>
  <text x="2074.0" y="480" class="dept-label" style="fill:#2E7D32;font-size:13px">и радиоэлектр.</text>
  <rect x="2066.0" y="347" width="16" height="5" class="door"/>


  <!-- ЛЕСТНИЦЫ -->
  <rect x="390" y="350" width="60" height="220" class="stairs" data-type="stairs" rx="3"/>
  <text x="420" y="460" class="label" style="font-size:14px;fill:#666;transform:rotate(-90deg);transform-origin:420px 460px;transform-box:view-box">Лестница</text>
  <line x1="395" y1="380" x2="445" y2="380" stroke="#bbb" stroke-width="0.5"/>
  <line x1="395" y1="410" x2="445" y2="410" stroke="#bbb" stroke-width="0.5"/>
  <line x1="395" y1="440" x2="445" y2="440" stroke="#bbb" stroke-width="0.5"/>
  <line x1="395" y1="470" x2="445" y2="470" stroke="#bbb" stroke-width="0.5"/>
  <line x1="395" y1="500" x2="445" y2="500" stroke="#bbb" stroke-width="0.5"/>
  <line x1="395" y1="530" x2="445" y2="530" stroke="#bbb" stroke-width="0.5"/>
  <rect x="1514" y="350" width="60" height="220" class="stairs" data-type="stairs" rx="3"/>
  <text x="1544" y="460" class="label" style="font-size:14px;fill:#666;transform:rotate(-90deg);transform-origin:1544px 460px;transform-box:view-box">Лестница</text>
  <line x1="1519" y1="380" x2="1569" y2="380" stroke="#bbb" stroke-width="0.5"/>
  <line x1="1519" y1="410" x2="1569" y2="410" stroke="#bbb" stroke-width="0.5"/>
  <line x1="1519" y1="440" x2="1569" y2="440" stroke="#bbb" stroke-width="0.5"/>
  <line x1="1519" y1="470" x2="1569" y2="470" stroke="#bbb" stroke-width="0.5"/>
  <line x1="1519" y1="500" x2="1569" y2="500" stroke="#bbb" stroke-width="0.5"/>
  <line x1="1519" y1="530" x2="1569" y2="530" stroke="#bbb" stroke-width="0.5"/>

  <!-- СТЕНЫ -->
  <rect x="8" y="48" width="2139" height="524" class="wall" rx="4"/>
  <line x1="10" y1="270" x2="2145" y2="270" class="inner-wall"/>
  <line x1="10" y1="350" x2="2145" y2="350" class="inner-wall"/>
  <line x1="154.1" y1="50" x2="154.1" y2="270" class="inner-wall"/>
  <line x1="298.2" y1="50" x2="298.2" y2="270" class="inner-wall"/>
  <line x1="394.6" y1="50" x2="394.6" y2="270" class="inner-wall"/>
  <line x1="538.7" y1="50" x2="538.7" y2="270" class="inner-wall"/>
  <line x1="682.8" y1="50" x2="682.8" y2="270" class="inner-wall"/>
  <line x1="826.9" y1="50" x2="826.9" y2="270" class="inner-wall"/>
  <line x1="971.0" y1="50" x2="971.0" y2="270" class="inner-wall"/>
  <line x1="1115.1" y1="50" x2="1115.1" y2="270" class="inner-wall"/>
  <line x1="1211.5" y1="50" x2="1211.5" y2="270" class="inner-wall"/>
  <line x1="1308.0" y1="50" x2="1308.0" y2="270" class="inner-wall"/>
  <line x1="1404.4" y1="50" x2="1404.4" y2="270" class="inner-wall"/>
  <line x1="1500.8" y1="50" x2="1500.8" y2="270" class="inner-wall"/>
  <line x1="1597.2" y1="50" x2="1597.2" y2="270" class="inner-wall"/>
  <line x1="1693.6" y1="50" x2="1693.6" y2="270" class="inner-wall"/>
  <line x1="1759.3" y1="50" x2="1759.3" y2="270" class="inner-wall"/>
  <line x1="1855.7" y1="50" x2="1855.7" y2="270" class="inner-wall"/>
  <line x1="1952.2" y1="50" x2="1952.2" y2="270" class="inner-wall"/>
  <line x1="2048.6" y1="50" x2="2048.6" y2="270" class="inner-wall"/>
  <line x1="105.0" y1="350" x2="105.0" y2="570" class="inner-wall"/>
  <line x1="200.0" y1="350" x2="200.0" y2="570" class="inner-wall"/>
  <line x1="295.0" y1="350" x2="295.0" y2="570" class="inner-wall"/>
  <line x1="450" y1="350" x2="450" y2="570" class="inner-wall"/>
  <line x1="515" y1="350" x2="515" y2="570" class="inner-wall"/>
  <line x1="610" y1="350" x2="610" y2="570" class="inner-wall"/>
  <line x1="705" y1="350" x2="705" y2="570" class="inner-wall"/>
  <line x1="800" y1="350" x2="800" y2="570" class="inner-wall"/>
  <line x1="895" y1="350" x2="895" y2="570" class="inner-wall"/>
  <line x1="990" y1="350" x2="990" y2="570" class="inner-wall"/>
  <line x1="1133" y1="350" x2="1133" y2="570" class="inner-wall"/>
  <line x1="1276" y1="350" x2="1276" y2="570" class="inner-wall"/>
  <line x1="1371" y1="350" x2="1371" y2="570" class="inner-wall"/>
  <line x1="1514" y1="350" x2="1514" y2="570" class="inner-wall"/>
  <line x1="1717.0" y1="350" x2="1717.0" y2="570" class="inner-wall"/>
  <line x1="1860.0" y1="350" x2="1860.0" y2="570" class="inner-wall"/>
  <line x1="2003.0" y1="350" x2="2003.0" y2="570" class="inner-wall"/>

  <line x1="390" y1="350" x2="390" y2="570" class="inner-wall"/>
  <line x1="1574" y1="350" x2="1574" y2="570" class="inner-wall"/>

</svg>