<?xml version="1.0" encoding="UTF-8"?>
<svg xmlns="http://www.w3.org/2000/svg" viewBox="0 0 2155 680" width="2155" height="680">
  <defs>
    <style>
  .wall{fill:none;stroke:#4a4a4a;stroke-width:3;stroke-linecap:round}
  .inner-wall{fill:none;stroke:#6a6a6a;stroke-width:1.5;stroke-linecap:round}
  .room{fill:#F5F5F5;stroke:#BDBDBD;stroke-width:1;cursor:pointer;transition:fill .2s}
  .room:hover{fill:#EEEEEE}
  .room.active{fill:#E0E0E0;stroke:#757575;stroke-width:2}
  .corridor{fill:#f5f5f5;stroke:#ddd;stroke-width:1}
  .stairs{fill:#e8e8e8;stroke:#aaa;stroke-width:1}
  .toilet{fill:#E0F2F1;stroke:#4DB6AC;stroke-width:1.5;cursor:pointer;transition:fill .2s}
  .toilet:hover{fill:#B2DFDB}
  .toilet.active{fill:#80CBC4;stroke:#00897B;stroke-width:2}
  .special{fill:#FCE4EC;stroke:#F48FB1;stroke-width:1.5;cursor:pointer;transition:fill .2s}
  .special:hover{fill:#F8BBD0}
  .special.active{fill:#F48FB1;stroke:#C2185B;stroke-width:2}
  .service{fill:#fff3e0;stroke:#ffb74d;stroke-width:1}
  .label{font-family:'Segoe UI',Arial,sans-serif;font-size:10px;fill:#333;text-anchor:middle;dominant-baseline:middle;pointer-events:none}
  .room-num{font-family:'Segoe UI',Arial,sans-serif;font-size:11px;fill:#333;text-anchor:middle;dominant-baseline:middle;pointer-events:none;font-weight:700}
  .dept-label{font-family:'Segoe UI',Arial,sans-serif;font-size:7.5px;fill:#555;text-anchor:middle;dominant-baseline:middle;pointer-events:none}
  .floor-label{font-family:'Segoe UI',Arial,sans-serif;font-size:16px;fill:#333;font-weight:800}
  .door{fill:#fff;stroke:#999;stroke-width:1}
  .atif-color{fill:#E3F2FD;stroke:#1565C0;stroke-width:1.5;cursor:pointer;transition:fill .2s}
  .atif-color:hover{fill:#BBDEFB}
  .atif-color.active{fill:#90CAF9;stroke:#1565C0;stroke-width:2}
  .itsu-color{fill:#E8F5E9;stroke:#2E7D32;stroke-width:1.5;cursor:pointer;transition:fill .2s}
  .itsu-color:hover{fill:#C8E6C9}
  .itsu-color.active{fill:#A5D6A7;stroke:#2E7D32;stroke-width:2}
  .ino-color{fill:#F3E5F5;stroke:#6A1B9A;stroke-width:1.5;cursor:pointer;transition:fill .2s}
  .ino-color:hover{fill:#E1BEE7}
  .ino-color.active{fill:#CE93D8;stroke:#6A1B9A;stroke-width:2}
  .lab-color{fill:#FFF8E1;stroke:#F9A825;stroke-width:1.5;cursor:pointer;transition:fill .2s}
  .lab-color:hover{fill:#FFECB3}
  .lab-color.active{fill:#FFD54F;stroke:#F9A825;stroke-width:2}
  .tech-color{fill:#ECEFF1;stroke:#546E7A;stroke-width:1.5;cursor:pointer;transition:fill .2s}
  .tech-color:hover{fill:#CFD8DC}
  .tech-color.active{fill:#B0BEC5;stroke:#546E7A;stroke-width:2}
    </style>
  </defs>

  <rect width="2155" height="680" fill="white"/>
  <text x="20" y="25" class="floor-label">2 этаж</text>

  <!-- КОРИДОР -->
  <rect x="10" y="270" width="2135" height="80" class="corridor" rx="2"/>
  <text x="1077.5" y="310" class="label" style="font-size:13px;fill:#aaa">К О Р И Д О Р</text>

  <!-- ВЕРХНИЙ РЯД (НЕЧЁТНЫЕ) -->
  <rect x="10.0" y="50" width="129.3" height="220" class="special" data-type="internet-class" rx="2"/>
  <text x="74.6" y="156" class="dept-label" style="fill:#AD1457;font-size:9px;font-weight:600">Интернет-</text>
  <text x="74.6" y="170" class="dept-label" style="fill:#AD1457;font-size:9px;font-weight:600">класс</text>
  <rect x="66.2" y="268" width="17.0" height="5" class="door"/>
  <rect x="139.3" y="50" width="129.3" height="220" class="special" data-type="bibliographers" rx="2"/>
  <text x="203.9" y="160" class="dept-label" style="fill:#AD1457;font-size:9px;font-weight:600">Библиографы</text>
  <rect x="195.4" y="268" width="17.0" height="5" class="door"/>
  <rect x="268.5" y="50" width="129.3" height="220" class="special" data-type="card-catalog" rx="2"/>
  <text x="333.2" y="160" class="dept-label" style="fill:#AD1457;font-size:9px;font-weight:600">Картотека</text>
  <rect x="324.7" y="268" width="17.0" height="5" class="door"/>
  <rect x="397.8" y="50" width="206.6" height="220" class="special" data-type="library-fund" rx="2"/>
  <text x="501.1" y="156" class="dept-label" style="fill:#AD1457;font-size:9px;font-weight:600">Библиотечный</text>
  <text x="501.1" y="170" class="dept-label" style="fill:#AD1457;font-size:9px;font-weight:600">фонд</text>
  <rect x="492.6" y="268" width="17.0" height="5" class="door"/>
  <rect x="604.4" y="50" width="90.1" height="220" class="room ino-color" data-room="211" data-type="ino" rx="2"/>
  <text x="649.4" y="150" class="room-num">211</text>
  <text x="649.4" y="172" class="dept-label" style="fill:#6A1B9A;font-size:7.5px">Аудитория</text>
  <rect x="641.0" y="268" width="17.0" height="5" class="door"/>
  <rect x="694.5" y="50" width="90.1" height="220" class="room ino-color" data-room="213" data-type="ino" rx="2"/>
  <text x="739.5" y="150" class="room-num">213</text>
  <text x="739.5" y="172" class="dept-label" style="fill:#6A1B9A;font-size:7.5px">Аудитория</text>
  <rect x="731.0" y="268" width="17.0" height="5" class="door"/>
  <rect x="784.5" y="50" width="102.8" height="220" class="room ino-color" data-room="215" data-type="ino" rx="2"/>
  <text x="835.9" y="150" class="room-num">215</text>
  <text x="835.9" y="168" class="dept-label" style="fill:#6A1B9A;font-size:7.5px">Фак. заочного</text>
  <text x="835.9" y="180" class="dept-label" style="fill:#6A1B9A;font-size:7.5px">обучения</text>
  <rect x="827.4" y="268" width="17.0" height="5" class="door"/>
  <rect x="887.3" y="50" width="90.1" height="220" class="room ino-color" data-room="217" data-type="ino" rx="2"/>
  <text x="932.3" y="150" class="room-num">217</text>
  <text x="932.3" y="172" class="dept-label" style="fill:#6A1B9A;font-size:7.5px">Аудитория</text>
  <rect x="923.9" y="268" width="17.0" height="5" class="door"/>
  <rect x="977.4" y="50" width="90.1" height="220" class="room ino-color" data-room="219" data-type="ino" rx="2"/>
  <text x="1022.4" y="150" class="room-num">219</text>
  <text x="1022.4" y="172" class="dept-label" style="fill:#6A1B9A;font-size:7.5px">Аудитория</text>
  <rect x="1013.9" y="268" width="17.0" height="5" class="door"/>
  <rect x="1067.4" y="50" width="154.7" height="220" class="room ino-color" data-room="221" data-type="ino" rx="2"/>
  <text x="1144.8" y="150" class="room-num">221</text>
  <text x="1144.8" y="168" class="dept-label" style="fill:#6A1B9A;font-size:7.5px">Проректор по</text>
  <text x="1144.8" y="180" class="dept-label" style="fill:#6A1B9A;font-size:7.5px">образ. политике</text>
  <rect x="1136.3" y="268" width="17.0" height="5" class="door"/>
  <rect x="1222.1" y="50" width="154.7" height="220" class="room ino-color" data-room="223" data-type="ino" rx="2"/>
  <text x="1299.5" y="150" class="room-num">223</text>
  <text x="1299.5" y="168" class="dept-label" style="fill:#6A1B9A;font-size:7.5px">Институт</text>
  <text x="1299.5" y="180" class="dept-label" style="fill:#6A1B9A;font-size:7.5px">непрер. образ.</text>
  <rect x="1291.0" y="268" width="17.0" height="5" class="door"/>
  <rect x="1376.8" y="50" width="90.1" height="220" class="room ino-color" data-room="225" data-type="ino" rx="2"/>
  <text x="1421.9" y="150" class="room-num">225</text>
  <text x="1421.9" y="172" class="dept-label" style="fill:#6A1B9A;font-size:7.5px">Аудитория</text>
  <rect x="1413.4" y="268" width="17.0" height="5" class="door"/>
  <rect x="1466.9" y="50" width="102.8" height="220" class="room ino-color" data-room="227" data-type="ino" rx="2"/>
  <text x="1518.3" y="150" class="room-num">227</text>
  <text x="1518.3" y="172" class="dept-label" style="fill:#6A1B9A;font-size:7.5px">Аудитория</text>
  <rect x="1509.8" y="268" width="17.0" height="5" class="door"/>
  <rect x="1569.7" y="50" width="71.0" height="220" class="toilet" data-type="toilet" rx="2"/>
  <text x="1605.2" y="160" class="dept-label" style="fill:#00695C;font-size:9px;font-weight:600">Туалет</text>
  <rect x="1596.7" y="268" width="17.0" height="5" class="door"/>
  <rect x="1640.7" y="50" width="90.1" height="220" class="room ino-color" data-room="229" data-type="ino" rx="2"/>
  <text x="1685.7" y="150" class="room-num">229</text>
  <text x="1685.7" y="172" class="dept-label" style="fill:#6A1B9A;font-size:7.5px">Аудитория</text>
  <rect x="1677.2" y="268" width="17.0" height="5" class="door"/>
  <rect x="1730.7" y="50" width="102.8" height="220" class="room ino-color" data-room="231" data-type="ino" rx="2"/>
  <text x="1782.1" y="150" class="room-num">231</text>
  <text x="1782.1" y="172" class="dept-label" style="fill:#6A1B9A;font-size:7.5px">Аудитория</text>
  <rect x="1773.6" y="268" width="17.0" height="5" class="door"/>
  <rect x="1833.5" y="50" width="102.8" height="220" class="room ino-color" data-room="233" data-type="ino" rx="2"/>
  <text x="1884.9" y="150" class="room-num">233</text>
  <text x="1884.9" y="172" class="dept-label" style="fill:#6A1B9A;font-size:7.5px">Аудитория</text>
  <rect x="1876.4" y="268" width="17.0" height="5" class="door"/>
  <rect x="1936.3" y="50" width="102.8" height="220" class="room ino-color" data-room="235" data-type="ino" rx="2"/>
  <text x="1987.7" y="150" class="room-num">235</text>
  <text x="1987.7" y="172" class="dept-label" style="fill:#6A1B9A;font-size:7.5px">Аудитория</text>
  <rect x="1979.2" y="268" width="17.0" height="5" class="door"/>
  <rect x="2039.0" y="50" width="106.0" height="220" class="room ino-color" data-room="237" data-type="ino" rx="2"/>
  <text x="2092.0" y="150" class="room-num">237</text>
  <text x="2092.0" y="172" class="dept-label" style="fill:#6A1B9A;font-size:7.5px">Аудитория</text>
  <rect x="2083.5" y="268" width="17.0" height="5" class="door"/>

  <!-- НИЖНИЙ РЯД (ЧЁТНЫЕ) -->
  <rect x="10.0" y="350" width="195" height="220" class="special" data-type="reading-room" rx="2"/>
  <text x="107.5" y="456" class="dept-label" style="fill:#AD1457;font-size:9px;font-weight:600">Читальный</text>
  <text x="107.5" y="470" class="dept-label" style="fill:#AD1457;font-size:9px;font-weight:600">зал</text>
  <rect x="99.5" y="347" width="16" height="5" class="door"/>
  <rect x="205.0" y="350" width="97" height="220" class="room ino-color" data-room="206" data-type="ino" rx="2"/>
  <text x="253.5" y="450" class="room-num">206</text>
  <text x="253.5" y="472" class="dept-label" style="fill:#6A1B9A;font-size:7.5px">Аудитория</text>
  <rect x="245.5" y="347" width="16" height="5" class="door"/>
  <rect x="302.0" y="350" width="97" height="220" class="room ino-color" data-room="208" data-type="ino" rx="2"/>
  <text x="350.5" y="450" class="room-num">208</text>
  <text x="350.5" y="472" class="dept-label" style="fill:#6A1B9A;font-size:7.5px">Аудитория</text>
  <rect x="342.5" y="347" width="16" height="5" class="door"/>
  <rect x="459" y="350" width="67" height="220" class="toilet" data-type="toilet" rx="2"/>
  <text x="492.5" y="460" class="dept-label" style="fill:#00695C;font-size:9px;font-weight:600">Туалет</text>
  <rect x="484.5" y="347" width="16" height="5" class="door"/>
  <rect x="526" y="350" width="195" height="220" class="room ino-color" data-room="210" data-type="ino" rx="2"/>
  <text x="623.5" y="450" class="room-num">210</text>
  <text x="623.5" y="468" class="dept-label" style="fill:#6A1B9A;font-size:7.5px">Центр между-</text>
  <text x="623.5" y="480" class="dept-label" style="fill:#6A1B9A;font-size:7.5px">народ. сотр.</text>
  <rect x="615.5" y="347" width="16" height="5" class="door"/>
  <rect x="721" y="350" width="97" height="220" class="room ino-color" data-room="212" data-type="ino" rx="2"/>
  <text x="769.5" y="450" class="room-num">212</text>
  <text x="769.5" y="472" class="dept-label" style="fill:#6A1B9A;font-size:7.5px">Аудитория</text>
  <rect x="761.5" y="347" width="16" height="5" class="door"/>
  <rect x="818" y="350" width="97" height="220" class="room ino-color" data-room="214" data-type="ino" rx="2"/>
  <text x="866.5" y="450" class="room-num">214</text>
  <text x="866.5" y="472" class="dept-label" style="fill:#6A1B9A;font-size:7.5px">Аудитория</text>
  <rect x="858.5" y="347" width="16" height="5" class="door"/>
  <rect x="915" y="350" width="97" height="220" class="room ino-color" data-room="216" data-type="ino" rx="2"/>
  <text x="963.5" y="450" class="room-num">216</text>
  <text x="963.5" y="472" class="dept-label" style="fill:#6A1B9A;font-size:7.5px">Аудитория</text>
  <rect x="955.5" y="347" width="16" height="5" class="door"/>
  <rect x="1012" y="350" width="146" height="220" class="room ino-color" data-room="218" data-type="ino" rx="2"/>
  <text x="1085" y="450" class="room-num">218</text>
  <text x="1085" y="468" class="dept-label" style="fill:#6A1B9A;font-size:7.5px">Каф. гуманит.</text>
  <text x="1085" y="480" class="dept-label" style="fill:#6A1B9A;font-size:7.5px">технологий</text>
  <rect x="1077" y="347" width="16" height="5" class="door"/>
  <rect x="1158" y="350" width="146" height="220" class="room ino-color" data-room="220" data-type="ino" rx="2"/>
  <text x="1231" y="450" class="room-num">220</text>
  <text x="1231" y="468" class="dept-label" style="fill:#6A1B9A;font-size:7.5px">Каф. общест.</text>
  <text x="1231" y="480" class="dept-label" style="fill:#6A1B9A;font-size:7.5px">наук</text>
  <rect x="1223" y="347" width="16" height="5" class="door"/>
  <rect x="1304" y="350" width="97" height="220" class="room ino-color" data-room="222" data-type="ino" rx="2"/>
  <text x="1352.5" y="450" class="room-num">222</text>
  <text x="1352.5" y="472" class="dept-label" style="fill:#6A1B9A;font-size:7.5px">Аудитория</text>
  <rect x="1344.5" y="347" width="16" height="5" class="door"/>
  <rect x="1401" y="350" width="97" height="220" class="room ino-color" data-room="224" data-type="ino" rx="2"/>
  <text x="1449.5" y="450" class="room-num">224</text>
  <text x="1449.5" y="472" class="dept-label" style="fill:#6A1B9A;font-size:7.5px">Комп. класс</text>
  <rect x="1441.5" y="347" width="16" height="5" class="door"/>
  <rect x="1498" y="350" width="97" height="220" class="room ino-color" data-room="226" data-type="ino" rx="2"/>
  <text x="1546.5" y="450" class="room-num">226</text>
  <text x="1546.5" y="472" class="dept-label" style="fill:#6A1B9A;font-size:7.5px">Аудитория</text>
  <rect x="1538.5" y="347" width="16" height="5" class="door"/>
  <rect x="1595" y="350" width="97" height="220" class="room ino-color" data-room="228" data-type="ino" rx="2"/>
  <text x="1643.5" y="450" class="room-num">228</text>
  <text x="1643.5" y="472" class="dept-label" style="fill:#6A1B9A;font-size:7.5px">Аудитория</text>
  <rect x="1635.5" y="347" width="16" height="5" class="door"/>
  <rect x="1692" y="350" width="97" height="220" class="room ino-color" data-room="230" data-type="ino" rx="2"/>
  <text x="1740.5" y="450" class="room-num">230</text>
  <text x="1740.5" y="472" class="dept-label" style="fill:#6A1B9A;font-size:7.5px">Аудитория</text>
  <rect x="1732.5" y="347" width="16" height="5" class="door"/>
  <rect x="1849.0" y="350" width="97" height="220" class="room ino-color" data-room="232" data-type="ino" rx="2"/>
  <text x="1897.5" y="450" class="room-num">232</text>
  <text x="1897.5" y="472" class="dept-label" style="fill:#6A1B9A;font-size:7.5px">Аудитория</text>
  <rect x="1889.5" y="347" width="16" height="5" class="door"/>
  <rect x="1946.0" y="350" width="97" height="220" class="room ino-color" data-room="234" data-type="ino" rx="2"/>
  <text x="1994.5" y="450" class="room-num">234</text>
  <text x="1994.5" y="472" class="dept-label" style="fill:#6A1B9A;font-size:7.5px">Аудитория</text>
  <rect x="1986.5" y="347" width="16" height="5" class="door"/>
  <rect x="2043.0" y="350" width="102" height="220" class="room ino-color" data-room="236" data-type="ino" rx="2"/>
  <text x="2094.0" y="450" class="room-num">236</text>
  <text x="2094.0" y="472" class="dept-label" style="fill:#6A1B9A;font-size:7.5px">Аудитория</text>
  <rect x="2086.0" y="347" width="16" height="5" class="door"/>


  <!-- ЛЕСТНИЦЫ -->
  <rect x="399" y="350" width="60" height="220" class="stairs" data-type="stairs" rx="3"/>
  <text x="429" y="460" class="label" style="font-size:14px;fill:#666;transform:rotate(-90deg);transform-origin:429px 460px;transform-box:view-box">Лестница</text>
  <line x1="404" y1="380" x2="454" y2="380" stroke="#bbb" stroke-width="0.5"/>
  <line x1="404" y1="410" x2="454" y2="410" stroke="#bbb" stroke-width="0.5"/>
  <line x1="404" y1="440" x2="454" y2="440" stroke="#bbb" stroke-width="0.5"/>
  <line x1="404" y1="470" x2="454" y2="470" stroke="#bbb" stroke-width="0.5"/>
  <line x1="404" y1="500" x2="454" y2="500" stroke="#bbb" stroke-width="0.5"/>
  <line x1="404" y1="530" x2="454" y2="530" stroke="#bbb" stroke-width="0.5"/>
  <rect x="1789" y="350" width="60" height="220" class="stairs" data-type="stairs" rx="3"/>
  <text x="1819" y="460" class="label" style="font-size:14px;fill:#666;transform:rotate(-90deg);transform-origin:1819px 460px;transform-box:view-box">Лестница</text>
  <line x1="1794" y1="380" x2="1844" y2="380" stroke="#bbb" stroke-width="0.5"/>
  <line x1="1794" y1="410" x2="1844" y2="410" stroke="#bbb" stroke-width="0.5"/>
  <line x1="1794" y1="440" x2="1844" y2="440" stroke="#bbb" stroke-width="0.5"/>
  <line x1="1794" y1="470" x2="1844" y2="470" stroke="#bbb" stroke-width="0.5"/>
  <line x1="1794" y1="500" x2="1844" y2="500" stroke="#bbb" stroke-width="0.5"/>
  <line x1="1794" y1="530" x2="1844" y2="530" stroke="#bbb" stroke-width="0.5"/>

  <!-- СТЕНЫ -->
  <rect x="8" y="48" width="2139" height="524" class="wall" rx="4"/>
  <line x1="10" y1="270" x2="2145" y2="270" class="inner-wall"/>
  <line x1="10" y1="350" x2="2145" y2="350" class="inner-wall"/>
  <line x1="139.3" y1="50" x2="139.3" y2="270" class="inner-wall"/>
  <line x1="268.5" y1="50" x2="268.5" y2="270" class="inner-wall"/>
  <line x1="397.8" y1="50" x2="397.8" y2="270" class="inner-wall"/>
  <line x1="604.4" y1="50" x2="604.4" y2="270" class="inner-wall"/>
  <line x1="694.5" y1="50" x2="694.5" y2="270" class="inner-wall"/>
  <line x1="784.5" y1="50" x2="784.5" y2="270" class="inner-wall"/>
  <line x1="887.3" y1="50" x2="887.3" y2="270" class="inner-wall"/>
  <line x1="977.4" y1="50" x2="977.4" y2="270" class="inner-wall"/>
  <line x1="1067.4" y1="50" x2="1067.4" y2="270" class="inner-wall"/>
  <line x1="1222.1" y1="50" x2="1222.1" y2="270" class="inner-wall"/>
  <line x1="1376.8" y1="50" x2="1376.8" y2="270" class="inner-wall"/>
  <line x1="1466.9" y1="50" x2="1466.9" y2="270" class="inner-wall"/>
  <line x1="1569.7" y1="50" x2="1569.7" y2="270" class="inner-wall"/>
  <line x1="1640.7" y1="50" x2="1640.7" y2="270" class="inner-wall"/>
  <line x1="1730.7" y1="50" x2="1730.7" y2="270" class="inner-wall"/>
  <line x1="1833.5" y1="50" x2="1833.5" y2="270" class="inner-wall"/>
  <line x1="1936.3" y1="50" x2="1936.3" y2="270" class="inner-wall"/>
  <line x1="2039.0" y1="50" x2="2039.0" y2="270" class="inner-wall"/>
  <line x1="205.0" y1="350" x2="205.0" y2="570" class="inner-wall"/>
  <line x1="302.0" y1="350" x2="302.0" y2="570" class="inner-wall"/>
  <line x1="459" y1="350" x2="459" y2="570" class="inner-wall"/>
  <line x1="526" y1="350" x2="526" y2="570" class="inner-wall"/>
  <line x1="721" y1="350" x2="721" y2="570" class="inner-wall"/>
  <line x1="818" y1="350" x2="818" y2="570" class="inner-wall"/>
  <line x1="915" y1="350" x2="915" y2="570" class="inner-wall"/>
  <line x1="1012" y1="350" x2="1012" y2="570" class="inner-wall"/>
  <line x1="1158" y1="350" x2="1158" y2="570" class="inner-wall"/>
  <line x1="1304" y1="350" x2="1304" y2="570" class="inner-wall"/>
  <line x1="1401" y1="350" x2="1401" y2="570" class="inner-wall"/>
  <line x1="1498" y1="350" x2="1498" y2="570" class="inner-wall"/>
  <line x1="1595" y1="350" x2="1595" y2="570" class="inner-wall"/>
  <line x1="1692" y1="350" x2="1692" y2="570" class="inner-wall"/>
  <line x1="1789" y1="350" x2="1789" y2="570" class="inner-wall"/>
  <line x1="1946.0" y1="350" x2="1946.0" y2="570" class="inner-wall"/>
  <line x1="2043.0" y1="350" x2="2043.0" y2="570" class="inner-wall"/>

  <line x1="399" y1="350" x2="399" y2="570" class="inner-wall"/>
  <line x1="1849" y1="350" x2="1849" y2="570" class="inner-wall"/>

</svg>