<?xml version="1.0" encoding="UTF-8"?>
<svg xmlns="http://www.w3.org/2000/svg" viewBox="0 0 2155 680" preserveAspectRatio="xMidYMid meet">
  <defs>
    <style>
  .wall{fill:none;stroke:#4a4a4a;stroke-width:3;stroke-linecap:round}
  .inner-wall{fill:none;stroke:#6a6a6a;stroke-width:1.5;stroke-linecap:round}
  .room{fill:#F5F5F5;stroke:#BDBDBD;stroke-width:1;cursor:pointer;transition:fill .2s}
  .room:hover{fill:#EEEEEE}
  .room.active{fill:#E0E0E0;stroke:#757575;stroke-width:2}
  .corridor{fill:#f5f5f5;stroke:#ddd;stroke-width:1}
  .stairs{fill:#e8e8e8;stroke:#aaa;stroke-width:1}
  .toilet{fill:#E0F2F1;stroke:#4DB6AC;stroke-width:1.5;cursor:pointer;transition:fill .2s}
  .toilet:hover{fill:#B2DFDB}
  .toilet.active{fill:#80CBC4;stroke:#00897B;stroke-width:2}
  .special{fill:#FCE4EC;stroke:#F48FB1;stroke-width:1.5;cursor:pointer;transition:fill .2s}
  .special:hover{fill:#F8BBD0}
  .special.active{fill:#F48FB1;stroke:#C2185B;stroke-width:2}
  .service{fill:#fff3e0;stroke:#ffb74d;stroke-width:1}
  .label{font-family:'Segoe UI',Arial,sans-serif;font-size:15px;fill:#333;text-anchor:middle;dominant-baseline:middle;pointer-events:none;paint-order:stroke;stroke:white;stroke-width:6px;stroke-linejoin:round}
  .room-num{font-family:'Segoe UI',Arial,sans-serif;font-size:24px;fill:#222;text-anchor:middle;dominant-baseline:middle;pointer-events:none;font-weight:800;paint-order:stroke;stroke:white;stroke-width:7px;stroke-linejoin:round}
  .dept-label{font-family:'Segoe UI',Arial,sans-serif;font-size:13px;fill:#444;text-anchor:middle;dominant-baseline:middle;pointer-events:none;paint-order:stroke;stroke:white;stroke-width:5px;stroke-linejoin:round}
  .floor-label{font-family:'Segoe UI',Arial,sans-serif;font-size:18px;fill:#333;font-weight:800}
  .door{fill:#fff;stroke:#999;stroke-width:1}
  .atif-color{fill:#E3F2FD;stroke:#1565C0;stroke-width:1.5;cursor:pointer;transition:fill .2s}
  .atif-color:hover{fill:#BBDEFB}
  .atif-color.active{fill:#90CAF9;stroke:#1565C0;stroke-width:2}
  .itsu-color{fill:#E8F5E9;stroke:#2E7D32;stroke-width:1.5;cursor:pointer;transition:fill .2s}
  .itsu-color:hover{fill:#C8E6C9}
  .itsu-color.active{fill:#A5D6A7;stroke:#2E7D32;stroke-width:2}
  .ino-color{fill:#F3E5F5;stroke:#6A1B9A;stroke-width:1.5;cursor:pointer;transition:fill .2s}
  .ino-color:hover{fill:#E1BEE7}
  .ino-color.active{fill:#CE93D8;stroke:#6A1B9A;stroke-width:2}
  .lab-color{fill:#FFF8E1;stroke:#F9A825;stroke-width:1.5;cursor:pointer;transition:fill .2s}
  .lab-color:hover{fill:#FFECB3}
  .lab-color.active{fill:#FFD54F;stroke:#F9A825;stroke-width:2}
  .tech-color{fill:#ECEFF1;stroke:#546E7A;stroke-width:1.5;cursor:pointer;transition:fill .2s}
  .tech-color:hover{fill:#CFD8DC}
  .tech-color.active{fill:#B0BEC5;stroke:#546E7A;stroke-width:2}
  
    </style>
  </defs>

  <rect width="2155" height="680" fill="white"/>
  <text x="20" y="25" class="floor-label">3 этаж</text>

  <!-- КОРИДОР -->
  <rect x="70" y="270" width="2015" height="80" class="corridor" rx="2"/>
  <text x="1077.5" y="310" class="label" style="font-size:16px;fill:#aaa">К О Р И Д О Р</text>

  <!-- ЛЕСТНИЦЫ -->
  <rect x="10" y="50" width="60" height="520" class="stairs" rx="3"/>
  <text x="40" y="310" class="label" style="font-size:14px;fill:#666;transform:rotate(-90deg);transform-origin:40px 310px;transform-box:view-box">Лестница</text>
  <line x1="15" y1="90" x2="65" y2="90" stroke="#bbb" stroke-width="0.5"/>
  <line x1="15" y1="120" x2="65" y2="120" stroke="#bbb" stroke-width="0.5"/>
  <line x1="15" y1="150" x2="65" y2="150" stroke="#bbb" stroke-width="0.5"/>
  <line x1="15" y1="180" x2="65" y2="180" stroke="#bbb" stroke-width="0.5"/>
  <line x1="15" y1="210" x2="65" y2="210" stroke="#bbb" stroke-width="0.5"/>
  <line x1="15" y1="240" x2="65" y2="240" stroke="#bbb" stroke-width="0.5"/>
  <line x1="15" y1="270" x2="65" y2="270" stroke="#bbb" stroke-width="0.5"/>
  <line x1="15" y1="300" x2="65" y2="300" stroke="#bbb" stroke-width="0.5"/>
  <line x1="15" y1="330" x2="65" y2="330" stroke="#bbb" stroke-width="0.5"/>
  <line x1="15" y1="360" x2="65" y2="360" stroke="#bbb" stroke-width="0.5"/>
  <line x1="15" y1="390" x2="65" y2="390" stroke="#bbb" stroke-width="0.5"/>
  <line x1="15" y1="420" x2="65" y2="420" stroke="#bbb" stroke-width="0.5"/>
  <line x1="15" y1="450" x2="65" y2="450" stroke="#bbb" stroke-width="0.5"/>
  <line x1="15" y1="480" x2="65" y2="480" stroke="#bbb" stroke-width="0.5"/>
  <line x1="15" y1="510" x2="65" y2="510" stroke="#bbb" stroke-width="0.5"/>
  <line x1="15" y1="540" x2="65" y2="540" stroke="#bbb" stroke-width="0.5"/>
  <rect x="2085" y="50" width="60" height="520" class="stairs" rx="3"/>
  <text x="2115" y="310" class="label" style="font-size:14px;fill:#666;transform:rotate(-90deg);transform-origin:2115px 310px;transform-box:view-box">Лестница</text>
  <line x1="2090" y1="90" x2="2140" y2="90" stroke="#bbb" stroke-width="0.5"/>
  <line x1="2090" y1="120" x2="2140" y2="120" stroke="#bbb" stroke-width="0.5"/>
  <line x1="2090" y1="150" x2="2140" y2="150" stroke="#bbb" stroke-width="0.5"/>
  <line x1="2090" y1="180" x2="2140" y2="180" stroke="#bbb" stroke-width="0.5"/>
  <line x1="2090" y1="210" x2="2140" y2="210" stroke="#bbb" stroke-width="0.5"/>
  <line x1="2090" y1="240" x2="2140" y2="240" stroke="#bbb" stroke-width="0.5"/>
  <line x1="2090" y1="270" x2="2140" y2="270" stroke="#bbb" stroke-width="0.5"/>
  <line x1="2090" y1="300" x2="2140" y2="300" stroke="#bbb" stroke-width="0.5"/>
  <line x1="2090" y1="330" x2="2140" y2="330" stroke="#bbb" stroke-width="0.5"/>
  <line x1="2090" y1="360" x2="2140" y2="360" stroke="#bbb" stroke-width="0.5"/>
  <line x1="2090" y1="390" x2="2140" y2="390" stroke="#bbb" stroke-width="0.5"/>
  <line x1="2090" y1="420" x2="2140" y2="420" stroke="#bbb" stroke-width="0.5"/>
  <line x1="2090" y1="450" x2="2140" y2="450" stroke="#bbb" stroke-width="0.5"/>
  <line x1="2090" y1="480" x2="2140" y2="480" stroke="#bbb" stroke-width="0.5"/>
  <line x1="2090" y1="510" x2="2140" y2="510" stroke="#bbb" stroke-width="0.5"/>
  <line x1="2090" y1="540" x2="2140" y2="540" stroke="#bbb" stroke-width="0.5"/>

  <!-- ВЕРХНИЙ РЯД (НЕЧЁТНЫЕ) -->
  <rect x="70" y="50" width="80" height="220" class="room atif-color" data-room="301" data-type="atif" rx="2"/>
  <text x="110" y="150" class="room-num">301</text>
  <text x="110" y="172" class="dept-label" style="fill:#1565C0;font-size:13px">Аудитория</text>
  <rect x="102" y="268" width="16" height="5" class="door"/>
  <rect x="150" y="50" width="80" height="220" class="room atif-color" data-room="303" data-type="atif" rx="2"/>
  <text x="190" y="150" class="room-num">303</text>
  <text x="190" y="172" class="dept-label" style="fill:#1565C0;font-size:13px">Аудитория</text>
  <rect x="182" y="268" width="16" height="5" class="door"/>
  <rect x="230" y="50" width="80" height="220" class="room atif-color" data-room="305" data-type="atif" rx="2"/>
  <text x="270" y="150" class="room-num">305</text>
  <text x="270" y="172" class="dept-label" style="fill:#1565C0;font-size:13px">Аудитория</text>
  <rect x="262" y="268" width="16" height="5" class="door"/>
  <rect x="310" y="50" width="80" height="220" class="room atif-color" data-room="307" data-type="atif" rx="2"/>
  <text x="350" y="150" class="room-num">307</text>
  <text x="350" y="172" class="dept-label" style="fill:#1565C0;font-size:13px">Аудитория</text>
  <rect x="342" y="268" width="16" height="5" class="door"/>
  <rect x="390" y="50" width="80" height="220" class="room atif-color" data-room="309" data-type="atif" rx="2"/>
  <text x="430" y="150" class="room-num">309</text>
  <text x="430" y="172" class="dept-label" style="fill:#1565C0;font-size:13px">Аудитория</text>
  <rect x="422" y="268" width="16" height="5" class="door"/>
  <rect x="470" y="50" width="120" height="220" class="room atif-color" data-room="311" data-type="atif" rx="2"/>
  <text x="530" y="150" class="room-num">311</text>
  <text x="530" y="168" class="dept-label" style="fill:#1565C0;font-size:13px">Каф. иннов.</text>
  <text x="530" y="180" class="dept-label" style="fill:#1565C0;font-size:13px">машиностроения</text>
  <rect x="522" y="268" width="16" height="5" class="door"/>
  <rect x="590" y="50" width="80" height="220" class="room atif-color" data-room="313" data-type="atif" rx="2"/>
  <text x="630" y="150" class="room-num">313</text>
  <text x="630" y="168" class="dept-label" style="fill:#1565C0;font-size:13px">Лаб. каф.</text>
  <text x="630" y="180" class="dept-label" style="fill:#1565C0;font-size:13px">иннов. маш.</text>
  <rect x="622" y="268" width="16" height="5" class="door"/>
  <rect x="670" y="50" width="80" height="220" class="room atif-color" data-room="315" data-type="atif" rx="2"/>
  <text x="710" y="150" class="room-num">315</text>
  <text x="710" y="172" class="dept-label" style="fill:#1565C0;font-size:13px">Аудитория</text>
  <rect x="702" y="268" width="16" height="5" class="door"/>
  <rect x="750" y="50" width="80" height="220" class="room atif-color" data-room="317" data-type="atif" rx="2"/>
  <text x="790" y="150" class="room-num">317</text>
  <text x="790" y="168" class="dept-label" style="fill:#1565C0;font-size:13px">Лаб. каф.</text>
  <text x="790" y="180" class="dept-label" style="fill:#1565C0;font-size:13px">авиац. дв.</text>
  <rect x="782" y="268" width="16" height="5" class="door"/>
  <rect x="830" y="50" width="80" height="220" class="room atif-color" data-room="319" data-type="atif" rx="2"/>
  <text x="870" y="150" class="room-num">319</text>
  <text x="870" y="172" class="dept-label" style="fill:#1565C0;font-size:13px">Аудитория</text>
  <rect x="862" y="268" width="16" height="5" class="door"/>
  <rect x="910" y="50" width="80" height="220" class="room atif-color" data-room="321" data-type="atif" rx="2"/>
  <text x="950" y="150" class="room-num">321</text>
  <text x="950" y="172" class="dept-label" style="fill:#1565C0;font-size:13px">Аудитория</text>
  <rect x="942" y="268" width="16" height="5" class="door"/>
  <rect x="990" y="50" width="80" height="220" class="room atif-color" data-room="323" data-type="atif" rx="2"/>
  <text x="1030" y="150" class="room-num">323</text>
  <text x="1030" y="172" class="dept-label" style="fill:#1565C0;font-size:13px">Аудитория</text>
  <rect x="1022" y="268" width="16" height="5" class="door"/>
  <rect x="1070" y="50" width="120" height="220" class="room atif-color" data-room="325" data-type="atif" rx="2"/>
  <text x="1130" y="150" class="room-num">325</text>
  <text x="1130" y="168" class="dept-label" style="fill:#1565C0;font-size:13px">Каф. авиац.</text>
  <text x="1130" y="180" class="dept-label" style="fill:#1565C0;font-size:13px">двигателей</text>
  <rect x="1122" y="268" width="16" height="5" class="door"/>
  <rect x="1190" y="50" width="120" height="220" class="room atif-color" data-room="327" data-type="atif" rx="2"/>
  <text x="1250" y="150" class="room-num">327</text>
  <text x="1250" y="168" class="dept-label" style="fill:#1565C0;font-size:13px">Дирекция</text>
  <text x="1250" y="180" class="dept-label" style="fill:#1565C0;font-size:13px">ИАТИФ</text>
  <rect x="1242" y="268" width="16" height="5" class="door"/>
  <rect x="1310" y="50" width="80" height="220" class="room atif-color" data-room="329" data-type="atif" rx="2"/>
  <text x="1350" y="150" class="room-num">329</text>
  <text x="1350" y="168" class="dept-label" style="fill:#1565C0;font-size:13px">Каф. материа-</text>
  <text x="1350" y="180" class="dept-label" style="fill:#1565C0;font-size:13px">ловедения</text>
  <rect x="1342" y="268" width="16" height="5" class="door"/>
  <rect x="1390" y="50" width="80" height="220" class="room atif-color" data-room="331" data-type="atif" rx="2"/>
  <text x="1430" y="150" class="room-num">331</text>
  <text x="1430" y="172" class="dept-label" style="fill:#1565C0;font-size:13px">Аудитория</text>
  <rect x="1422" y="268" width="16" height="5" class="door"/>
  <rect x="1470" y="50" width="55" height="220" class="toilet" data-type="toilet" rx="2"/>
  <text x="1497.5" y="160" class="dept-label" style="fill:#00695C;font-size:15px;font-weight:600">Туалет</text>
  <rect x="1489.5" y="268" width="16" height="5" class="door"/>
  <rect x="1525" y="50" width="80" height="220" class="room atif-color" data-room="333" data-type="atif" rx="2"/>
  <text x="1565" y="150" class="room-num">333</text>
  <text x="1565" y="172" class="dept-label" style="fill:#1565C0;font-size:13px">Аудитория</text>
  <rect x="1557" y="268" width="16" height="5" class="door"/>
  <rect x="1605" y="50" width="120" height="220" class="room atif-color" data-room="335" data-type="atif" rx="2"/>
  <text x="1665" y="150" class="room-num">335</text>
  <text x="1665" y="168" class="dept-label" style="fill:#1565C0;font-size:13px">Каф. общей и</text>
  <text x="1665" y="180" class="dept-label" style="fill:#1565C0;font-size:13px">техн. физики</text>
  <rect x="1657" y="268" width="16" height="5" class="door"/>
  <rect x="1725" y="50" width="120" height="220" class="room atif-color" data-room="337" data-type="atif" rx="2"/>
  <text x="1785" y="150" class="room-num">337</text>
  <text x="1785" y="168" class="dept-label" style="fill:#1565C0;font-size:13px">Каф. приклад.</text>
  <text x="1785" y="180" class="dept-label" style="fill:#1565C0;font-size:13px">механики</text>
  <rect x="1777" y="268" width="16" height="5" class="door"/>
  <rect x="1845" y="50" width="80" height="220" class="room atif-color" data-room="339" data-type="atif" rx="2"/>
  <text x="1885" y="150" class="room-num">339</text>
  <text x="1885" y="172" class="dept-label" style="fill:#1565C0;font-size:13px">Аудитория</text>
  <rect x="1877" y="268" width="16" height="5" class="door"/>
  <rect x="1925" y="50" width="80" height="220" class="room atif-color" data-room="341" data-type="atif" rx="2"/>
  <text x="1965" y="150" class="room-num">341</text>
  <text x="1965" y="172" class="dept-label" style="fill:#1565C0;font-size:13px">Аудитория</text>
  <rect x="1957" y="268" width="16" height="5" class="door"/>
  <rect x="2005" y="50" width="80" height="220" class="room atif-color" data-room="343" data-type="atif" rx="2"/>
  <text x="2045" y="150" class="room-num">343</text>
  <text x="2045" y="172" class="dept-label" style="fill:#1565C0;font-size:13px">Аудитория</text>
  <rect x="2037" y="268" width="16" height="5" class="door"/>

  <!-- НИЖНИЙ РЯД (ЧЁТНЫЕ) -->
  <rect x="70" y="350" width="94" height="220" class="room atif-color" data-room="302" data-type="atif" rx="2"/>
  <text x="117" y="450" class="room-num">302</text>
  <text x="117" y="472" class="dept-label" style="fill:#1565C0;font-size:13px">Аудитория</text>
  <rect x="109" y="347" width="16" height="5" class="door"/>
  <rect x="164" y="350" width="94" height="220" class="room atif-color" data-room="304" data-type="atif" rx="2"/>
  <text x="211" y="450" class="room-num">304</text>
  <text x="211" y="472" class="dept-label" style="fill:#1565C0;font-size:13px">Аудитория</text>
  <rect x="203" y="347" width="16" height="5" class="door"/>
  <rect x="258" y="350" width="94" height="220" class="room atif-color" data-room="306" data-type="atif" rx="2"/>
  <text x="305" y="450" class="room-num">306</text>
  <text x="305" y="472" class="dept-label" style="fill:#1565C0;font-size:13px">Аудитория</text>
  <rect x="297" y="347" width="16" height="5" class="door"/>
  <rect x="352" y="350" width="94" height="220" class="room atif-color" data-room="308" data-type="atif" rx="2"/>
  <text x="399" y="450" class="room-num">308</text>
  <text x="399" y="472" class="dept-label" style="fill:#1565C0;font-size:13px">Аудитория</text>
  <rect x="391" y="347" width="16" height="5" class="door"/>
  <rect x="446" y="350" width="94" height="220" class="room atif-color" data-room="310" data-type="atif" rx="2"/>
  <text x="493" y="450" class="room-num">310</text>
  <text x="493" y="472" class="dept-label" style="fill:#1565C0;font-size:13px">Аудитория</text>
  <rect x="485" y="347" width="16" height="5" class="door"/>
  <rect x="540" y="350" width="57" height="220" class="toilet" data-type="toilet" rx="2"/>
  <text x="568.5" y="460" class="dept-label" style="fill:#00695C;font-size:15px;font-weight:600">Туалет</text>
  <rect x="560.5" y="347" width="16" height="5" class="door"/>
  <rect x="597" y="350" width="125" height="220" class="room atif-color" data-room="312" data-type="atif" rx="2"/>
  <text x="659.5" y="450" class="room-num">312</text>
  <text x="659.5" y="468" class="dept-label" style="fill:#1565C0;font-size:13px">Лаб. каф.</text>
  <text x="659.5" y="480" class="dept-label" style="fill:#1565C0;font-size:13px">иннов. маш.</text>
  <rect x="651.5" y="347" width="16" height="5" class="door"/>
  <rect x="722" y="350" width="94" height="220" class="room atif-color" data-room="314" data-type="atif" rx="2"/>
  <text x="769" y="450" class="room-num">314</text>
  <text x="769" y="468" class="dept-label" style="fill:#1565C0;font-size:13px">Лаб. каф.</text>
  <text x="769" y="480" class="dept-label" style="fill:#1565C0;font-size:13px">авиац. дв.</text>
  <rect x="761" y="347" width="16" height="5" class="door"/>
  <rect x="816" y="350" width="94" height="220" class="room atif-color" data-room="316" data-type="atif" rx="2"/>
  <text x="863" y="450" class="room-num">316</text>
  <text x="863" y="472" class="dept-label" style="fill:#1565C0;font-size:13px">Аудитория</text>
  <rect x="855" y="347" width="16" height="5" class="door"/>
  <rect x="910" y="350" width="94" height="220" class="room atif-color" data-room="318" data-type="atif" rx="2"/>
  <text x="957" y="450" class="room-num">318</text>
  <text x="957" y="472" class="dept-label" style="fill:#1565C0;font-size:13px">Аудитория</text>
  <rect x="949" y="347" width="16" height="5" class="door"/>
  <rect x="1004" y="350" width="115" height="220" class="room atif-color" data-room="320" data-type="atif" rx="2"/>
  <text x="1061.5" y="450" class="room-num">320</text>
  <text x="1061.5" y="468" class="dept-label" style="fill:#1565C0;font-size:13px">Лаб. каф.</text>
  <text x="1061.5" y="480" class="dept-label" style="fill:#1565C0;font-size:13px">физики</text>
  <rect x="1053.5" y="347" width="16" height="5" class="door"/>
  <rect x="1119" y="350" width="94" height="220" class="room atif-color" data-room="322" data-type="atif" rx="2"/>
  <text x="1166" y="450" class="room-num">322</text>
  <text x="1166" y="472" class="dept-label" style="fill:#1565C0;font-size:13px">Аудитория</text>
  <rect x="1158" y="347" width="16" height="5" class="door"/>
  <rect x="1213" y="350" width="94" height="220" class="room atif-color" data-room="324" data-type="atif" rx="2"/>
  <text x="1260" y="450" class="room-num">324</text>
  <text x="1260" y="472" class="dept-label" style="fill:#1565C0;font-size:13px">Аудитория</text>
  <rect x="1252" y="347" width="16" height="5" class="door"/>
  <rect x="1307" y="350" width="94" height="220" class="room atif-color" data-room="326" data-type="atif" rx="2"/>
  <text x="1354" y="450" class="room-num">326</text>
  <text x="1354" y="472" class="dept-label" style="fill:#1565C0;font-size:13px">Аудитория</text>
  <rect x="1346" y="347" width="16" height="5" class="door"/>
  <rect x="1401" y="350" width="94" height="220" class="room atif-color" data-room="328" data-type="atif" rx="2"/>
  <text x="1448" y="450" class="room-num">328</text>
  <text x="1448" y="472" class="dept-label" style="fill:#1565C0;font-size:13px">Аудитория</text>
  <rect x="1440" y="347" width="16" height="5" class="door"/>
  <rect x="1495" y="350" width="115" height="220" class="room atif-color" data-room="330" data-type="atif" rx="2"/>
  <text x="1552.5" y="450" class="room-num">330</text>
  <text x="1552.5" y="468" class="dept-label" style="fill:#1565C0;font-size:13px">Лаб. каф.</text>
  <text x="1552.5" y="480" class="dept-label" style="fill:#1565C0;font-size:13px">материаловед.</text>
  <rect x="1544.5" y="347" width="16" height="5" class="door"/>
  <rect x="1610" y="350" width="94" height="220" class="room atif-color" data-room="332" data-type="atif" rx="2"/>
  <text x="1657" y="450" class="room-num">332</text>
  <text x="1657" y="472" class="dept-label" style="fill:#1565C0;font-size:13px">Аудитория</text>
  <rect x="1649" y="347" width="16" height="5" class="door"/>
  <rect x="1704" y="350" width="115" height="220" class="room atif-color" data-room="334" data-type="atif" rx="2"/>
  <text x="1761.5" y="450" class="room-num">334</text>
  <text x="1761.5" y="468" class="dept-label" style="fill:#1565C0;font-size:13px">Лаб. каф.</text>
  <text x="1761.5" y="480" class="dept-label" style="fill:#1565C0;font-size:13px">механики</text>
  <rect x="1753.5" y="347" width="16" height="5" class="door"/>
  <rect x="1819" y="350" width="94" height="220" class="room atif-color" data-room="336" data-type="atif" rx="2"/>
  <text x="1866" y="450" class="room-num">336</text>
  <text x="1866" y="472" class="dept-label" style="fill:#1565C0;font-size:13px">Аудитория</text>
  <rect x="1858" y="347" width="16" height="5" class="door"/>
  <rect x="1913" y="350" width="94" height="220" class="room atif-color" data-room="338" data-type="atif" rx="2"/>
  <text x="1960" y="450" class="room-num">338</text>
  <text x="1960" y="472" class="dept-label" style="fill:#1565C0;font-size:13px">Аудитория</text>
  <rect x="1952" y="347" width="16" height="5" class="door"/>
  <rect x="2007" y="350" width="78" height="220" class="room atif-color" data-room="340" data-type="atif" rx="2"/>
  <text x="2046" y="450" class="room-num">340</text>
  <text x="2046" y="472" class="dept-label" style="fill:#1565C0;font-size:13px">Аудитория</text>
  <rect x="2038" y="347" width="16" height="5" class="door"/>

  <!-- СТЕНЫ -->
  <rect x="8" y="48" width="2139" height="524" class="wall" rx="4"/>
  <line x1="70" y1="270" x2="2085" y2="270" class="inner-wall"/>
  <line x1="70" y1="350" x2="2085" y2="350" class="inner-wall"/>
  <line x1="150" y1="50" x2="150" y2="270" class="inner-wall"/>
  <line x1="230" y1="50" x2="230" y2="270" class="inner-wall"/>
  <line x1="310" y1="50" x2="310" y2="270" class="inner-wall"/>
  <line x1="390" y1="50" x2="390" y2="270" class="inner-wall"/>
  <line x1="470" y1="50" x2="470" y2="270" class="inner-wall"/>
  <line x1="590" y1="50" x2="590" y2="270" class="inner-wall"/>
  <line x1="670" y1="50" x2="670" y2="270" class="inner-wall"/>
  <line x1="750" y1="50" x2="750" y2="270" class="inner-wall"/>
  <line x1="830" y1="50" x2="830" y2="270" class="inner-wall"/>
  <line x1="910" y1="50" x2="910" y2="270" class="inner-wall"/>
  <line x1="990" y1="50" x2="990" y2="270" class="inner-wall"/>
  <line x1="1070" y1="50" x2="1070" y2="270" class="inner-wall"/>
  <line x1="1190" y1="50" x2="1190" y2="270" class="inner-wall"/>
  <line x1="1310" y1="50" x2="1310" y2="270" class="inner-wall"/>
  <line x1="1390" y1="50" x2="1390" y2="270" class="inner-wall"/>
  <line x1="1470" y1="50" x2="1470" y2="270" class="inner-wall"/>
  <line x1="1525" y1="50" x2="1525" y2="270" class="inner-wall"/>
  <line x1="1605" y1="50" x2="1605" y2="270" class="inner-wall"/>
  <line x1="1725" y1="50" x2="1725" y2="270" class="inner-wall"/>
  <line x1="1845" y1="50" x2="1845" y2="270" class="inner-wall"/>
  <line x1="1925" y1="50" x2="1925" y2="270" class="inner-wall"/>
  <line x1="2005" y1="50" x2="2005" y2="270" class="inner-wall"/>
  <line x1="164" y1="350" x2="164" y2="570" class="inner-wall"/>
  <line x1="258" y1="350" x2="258" y2="570" class="inner-wall"/>
  <line x1="352" y1="350" x2="352" y2="570" class="inner-wall"/>
  <line x1="446" y1="350" x2="446" y2="570" class="inner-wall"/>
  <line x1="540" y1="350" x2="540" y2="570" class="inner-wall"/>
  <line x1="597" y1="350" x2="597" y2="570" class="inner-wall"/>
  <line x1="722" y1="350" x2="722" y2="570" class="inner-wall"/>
  <line x1="816" y1="350" x2="816" y2="570" class="inner-wall"/>
  <line x1="910" y1="350" x2="910" y2="570" class="inner-wall"/>
  <line x1="1004" y1="350" x2="1004" y2="570" class="inner-wall"/>
  <line x1="1119" y1="350" x2="1119" y2="570" class="inner-wall"/>
  <line x1="1213" y1="350" x2="1213" y2="570" class="inner-wall"/>
  <line x1="1307" y1="350" x2="1307" y2="570" class="inner-wall"/>
  <line x1="1401" y1="350" x2="1401" y2="570" class="inner-wall"/>
  <line x1="1495" y1="350" x2="1495" y2="570" class="inner-wall"/>
  <line x1="1610" y1="350" x2="1610" y2="570" class="inner-wall"/>
  <line x1="1704" y1="350" x2="1704" y2="570" class="inner-wall"/>
  <line x1="1819" y1="350" x2="1819" y2="570" class="inner-wall"/>
  <line x1="1913" y1="350" x2="1913" y2="570" class="inner-wall"/>
  <line x1="2007" y1="350" x2="2007" y2="570" class="inner-wall"/>

</svg>