<?xml version="1.0" encoding="UTF-8"?>
<svg xmlns="http://www.w3.org/2000/svg" viewBox="0 0 2155 680" preserveAspectRatio="xMidYMid meet">
  <defs>
    <style>
  .wall{fill:none;stroke:#4a4a4a;stroke-width:3;stroke-linecap:round}
  .inner-wall{fill:none;stroke:#6a6a6a;stroke-width:1.5;stroke-linecap:round}
  .room{fill:#F5F5F5;stroke:#BDBDBD;stroke-width:1;cursor:pointer;transition:fill .2s}
  .room:hover{fill:#EEEEEE}
  .room.active{fill:#E0E0E0;stroke:#757575;stroke-width:2}
  .corridor{fill:#f5f5f5;stroke:#ddd;stroke-width:1}
  .stairs{fill:#e8e8e8;stroke:#aaa;stroke-width:1}
  .toilet{fill:#E0F2F1;stroke:#4DB6AC;stroke-width:1.5;cursor:pointer;transition:fill .2s}
  .toilet:hover{fill:#B2DFDB}
  .toilet.active{fill:#80CBC4;stroke:#00897B;stroke-width:2}
  .special{fill:#FCE4EC;stroke:#F48FB1;stroke-width:1.5;cursor:pointer;transition:fill .2s}
  .special:hover{fill:#F8BBD0}
  .special.active{fill:#F48FB1;stroke:#C2185B;stroke-width:2}
  .service{fill:#fff3e0;stroke:#ffb74d;stroke-width:1}
  .label{font-family:'Segoe UI',Arial,sans-serif;font-size:15px;fill:#333;text-anchor:middle;dominant-baseline:middle;pointer-events:none;paint-order:stroke;stroke:white;stroke-width:6px;stroke-linejoin:round}
  .room-num{font-family:'Segoe UI',Arial,sans-serif;font-size:24px;fill:#222;text-anchor:middle;dominant-baseline:middle;pointer-events:none;font-weight:800;paint-order:stroke;stroke:white;stroke-width:8px;stroke-linejoin:round}
  .dept-label{font-family:'Segoe UI',Arial,sans-serif;font-size:13px;fill:#444;text-anchor:middle;dominant-baseline:middle;pointer-events:none;paint-order:stroke;stroke:white;stroke-width:5px;stroke-linejoin:round}
  .floor-label{font-family:'Segoe UI',Arial,sans-serif;font-size:18px;fill:#333;font-weight:800}
  .door{fill:#fff;stroke:#999;stroke-width:1}
  .atif-color{fill:#E3F2FD;stroke:#1565C0;stroke-width:1.5;cursor:pointer;transition:fill .2s}
  .atif-color:hover{fill:#BBDEFB}
  .atif-color.active{fill:#90CAF9;stroke:#1565C0;stroke-width:2}
  .itsu-color{fill:#E8F5E9;stroke:#2E7D32;stroke-width:1.5;cursor:pointer;transition:fill .2s}
  .itsu-color:hover{fill:#C8E6C9}
  .itsu-color.active{fill:#A5D6A7;stroke:#2E7D32;stroke-width:2}
  .ino-color{fill:#F3E5F5;stroke:#6A1B9A;stroke-width:1.5;cursor:pointer;transition:fill .2s}
  .ino-color:hover{fill:#E1BEE7}
  .ino-color.active{fill:#CE93D8;stroke:#6A1B9A;stroke-width:2}
  .lab-color{fill:#FFF8E1;stroke:#F9A825;stroke-width:1.5;cursor:pointer;transition:fill .2s}
  .lab-color:hover{fill:#FFECB3}
  .lab-color.active{fill:#FFD54F;stroke:#F9A825;stroke-width:2}
  .tech-color{fill:#ECEFF1;stroke:#546E7A;stroke-width:1.5;cursor:pointer;transition:fill .2s}
  .tech-color:hover{fill:#CFD8DC}
  .tech-color.active{fill:#B0BEC5;stroke:#546E7A;stroke-width:2}
  
    </style>
  </defs>

  <rect width="2155" height="680" fill="white"/>
  <text x="20" y="25" class="floor-label">1 этаж</text>

  <!-- КОРИДОР -->
  <rect x="10" y="270" width="2135" height="80" class="corridor" rx="2"/>
  <text x="1077.5" y="310" class="label" style="font-size:16px;fill:#aaa">К О Р И Д О Р</text>

  <!-- ВЕРХНИЙ РЯД (НЕЧЁТНЫЕ) -->
  <rect x="10.0" y="50" width="128.2" height="220" class="room" data-room="99" data-type="service" rx="2"/>
  <text x="74.1" y="150" class="room-num">99</text>
  <text x="74.1" y="168" class="dept-label" style="fill:#555;font-size:13px">Служба</text>
  <text x="74.1" y="180" class="dept-label" style="fill:#555;font-size:13px">охраны</text>
  <rect x="65.6" y="268" width="17.0" height="5" class="door"/>
  <rect x="138.2" y="50" width="191.8" height="220" class="room" data-room="101" data-type="admissions" rx="2"/>
  <text x="234.1" y="150" class="room-num">101</text>
  <text x="234.1" y="168" class="dept-label" style="fill:#555;font-size:13px">Приёмная</text>
  <text x="234.1" y="180" class="dept-label" style="fill:#555;font-size:13px">комиссия</text>
  <rect x="225.6" y="268" width="17.0" height="5" class="door"/>
  <rect x="330.0" y="50" width="128.2" height="220" class="room" data-room="103" data-type="service" rx="2"/>
  <text x="394.1" y="150" class="room-num">103</text>
  <text x="394.1" y="168" class="dept-label" style="fill:#555;font-size:13px">Учеб.-метод.</text>
  <text x="394.1" y="180" class="dept-label" style="fill:#555;font-size:13px">управление</text>
  <rect x="385.6" y="268" width="17.0" height="5" class="door"/>
  <rect x="458.2" y="50" width="160.0" height="220" class="special" data-type="cloakroom" rx="2"/>
  <text x="538.2" y="160" class="dept-label" style="fill:#AD1457;font-size:15px;font-weight:600">Гардероб</text>
  <rect x="529.7" y="268" width="17.0" height="5" class="door"/>
  <rect x="618.2" y="50" width="128.2" height="220" class="room" data-room="105" data-type="service" rx="2"/>
  <text x="682.3" y="150" class="room-num">105</text>
  <text x="682.3" y="168" class="dept-label" style="fill:#555;font-size:13px">Центр</text>
  <text x="682.3" y="180" class="dept-label" style="fill:#555;font-size:13px">карьеры</text>
  <rect x="673.8" y="268" width="17.0" height="5" class="door"/>
  <rect x="746.4" y="50" width="191.8" height="220" class="room" data-room="107" data-type="leader" rx="2"/>
  <text x="842.3" y="150" class="room-num">107</text>
  <text x="842.3" y="168" class="dept-label" style="fill:#555;font-size:13px">Ректорат</text>
  <text x="842.3" y="180" class="dept-label" style="fill:#555;font-size:13px">(приёмная)</text>
  <rect x="833.8" y="268" width="17.0" height="5" class="door"/>
  <rect x="938.2" y="50" width="112.3" height="220" class="room" data-room="109" data-type="service" rx="2"/>
  <text x="994.3" y="150" class="room-num">109</text>
  <text x="994.3" y="168" class="dept-label" style="fill:#555;font-size:13px">Управление</text>
  <text x="994.3" y="180" class="dept-label" style="fill:#555;font-size:13px">учёта</text>
  <rect x="985.8" y="268" width="17.0" height="5" class="door"/>
  <rect x="1050.5" y="50" width="112.3" height="220" class="room" data-room="111" data-type="service" rx="2"/>
  <text x="1106.6" y="150" class="room-num">111</text>
  <text x="1106.6" y="168" class="dept-label" style="fill:#555;font-size:13px">Читальный</text>
  <text x="1106.6" y="180" class="dept-label" style="fill:#555;font-size:13px">зал</text>
  <rect x="1098.2" y="268" width="17.0" height="5" class="door"/>
  <rect x="1162.8" y="50" width="191.8" height="220" class="room" data-room="113" data-type="service" rx="2"/>
  <text x="1258.7" y="150" class="room-num">113</text>
  <text x="1258.7" y="168" class="dept-label" style="fill:#555;font-size:13px">Спортивный</text>
  <text x="1258.7" y="180" class="dept-label" style="fill:#555;font-size:13px">зал</text>
  <rect x="1250.2" y="268" width="17.0" height="5" class="door"/>
  <rect x="1354.6" y="50" width="87.9" height="220" class="toilet" data-type="toilet" rx="2"/>
  <text x="1398.5" y="160" class="dept-label" style="fill:#00695C;font-size:15px;font-weight:600">Туалет</text>
  <rect x="1390.1" y="268" width="17.0" height="5" class="door"/>
  <rect x="1442.5" y="50" width="191.8" height="220" class="room" data-room="115" data-type="service" rx="2"/>
  <text x="1538.4" y="150" class="room-num">115</text>
  <text x="1538.4" y="168" class="dept-label" style="fill:#555;font-size:13px">Актовый</text>
  <text x="1538.4" y="180" class="dept-label" style="fill:#555;font-size:13px">зал</text>
  <rect x="1529.9" y="268" width="17.0" height="5" class="door"/>
  <rect x="1634.3" y="50" width="128.2" height="220" class="room" data-room="117" data-type="classroom" rx="2"/>
  <text x="1698.4" y="150" class="room-num">117</text>
  <text x="1698.4" y="172" class="dept-label" style="fill:#555;font-size:13px">Аудитория</text>
  <rect x="1689.9" y="268" width="17.0" height="5" class="door"/>
  <rect x="1762.5" y="50" width="128.2" height="220" class="room" data-room="119" data-type="classroom" rx="2"/>
  <text x="1826.6" y="150" class="room-num">119</text>
  <text x="1826.6" y="172" class="dept-label" style="fill:#555;font-size:13px">Аудитория</text>
  <rect x="1818.1" y="268" width="17.0" height="5" class="door"/>
  <rect x="1890.7" y="50" width="128.2" height="220" class="room" data-room="121" data-type="classroom" rx="2"/>
  <text x="1954.8" y="150" class="room-num">121</text>
  <text x="1954.8" y="172" class="dept-label" style="fill:#555;font-size:13px">Аудитория</text>
  <rect x="1946.3" y="268" width="17.0" height="5" class="door"/>
  <rect x="2018.9" y="50" width="126.1" height="220" class="room" data-room="123" data-type="classroom" rx="2"/>
  <text x="2082.0" y="150" class="room-num">123</text>
  <text x="2082.0" y="172" class="dept-label" style="fill:#555;font-size:13px">Аудитория</text>
  <rect x="2073.5" y="268" width="17.0" height="5" class="door"/>

  <!-- НИЖНИЙ РЯД (ЧЁТНЫЕ) -->
  <rect x="10.0" y="350" width="121" height="220" class="room" data-room="98" data-type="service" rx="2"/>
  <text x="70.5" y="450" class="room-num">98</text>
  <text x="70.5" y="468" class="dept-label" style="fill:#555;font-size:13px">Вахта /</text>
  <text x="70.5" y="480" class="dept-label" style="fill:#555;font-size:13px">Охрана</text>
  <rect x="62.5" y="347" width="16" height="5" class="door"/>
  <rect x="131.0" y="350" width="181" height="220" class="room" data-room="100" data-type="service" rx="2"/>
  <text x="221.5" y="450" class="room-num">100</text>
  <text x="221.5" y="472" class="dept-label" style="fill:#555;font-size:13px">Бухгалтерия</text>
  <rect x="213.5" y="347" width="16" height="5" class="door"/>
  <rect x="312.0" y="350" width="181" height="220" class="room" data-room="102" data-type="service" rx="2"/>
  <text x="402.5" y="450" class="room-num">102</text>
  <text x="402.5" y="468" class="dept-label" style="fill:#555;font-size:13px">Планово-фин.</text>
  <text x="402.5" y="480" class="dept-label" style="fill:#555;font-size:13px">управление</text>
  <rect x="394.5" y="347" width="16" height="5" class="door"/>
  <rect x="553" y="350" width="83" height="220" class="toilet" data-type="toilet" rx="2"/>
  <text x="594.5" y="460" class="dept-label" style="fill:#00695C;font-size:15px;font-weight:600">Туалет</text>
  <rect x="586.5" y="347" width="16" height="5" class="door"/>
  <rect x="636" y="350" width="143" height="220" class="room" data-room="104" data-type="service" rx="2"/>
  <text x="707.5" y="450" class="room-num">104</text>
  <text x="707.5" y="468" class="dept-label" style="fill:#555;font-size:13px">Упр. имущ.</text>
  <text x="707.5" y="480" class="dept-label" style="fill:#555;font-size:13px">комплексом</text>
  <rect x="699.5" y="347" width="16" height="5" class="door"/>
  <rect x="779" y="350" width="143" height="220" class="room" data-room="106" data-type="service" rx="2"/>
  <text x="850.5" y="450" class="room-num">106</text>
  <text x="850.5" y="468" class="dept-label" style="fill:#555;font-size:13px">Упр. по кадрам</text>
  <text x="850.5" y="480" class="dept-label" style="fill:#555;font-size:13px">и делопроизв.</text>
  <rect x="842.5" y="347" width="16" height="5" class="door"/>
  <rect x="922" y="350" width="136" height="220" class="room" data-room="108" data-type="service" rx="2"/>
  <text x="990" y="450" class="room-num">108</text>
  <text x="990" y="472" class="dept-label" style="fill:#555;font-size:13px">Медпункт</text>
  <rect x="982" y="347" width="16" height="5" class="door"/>
  <rect x="1058" y="350" width="181" height="220" class="room" data-room="110" data-type="service" rx="2"/>
  <text x="1148.5" y="450" class="room-num">110</text>
  <text x="1148.5" y="472" class="dept-label" style="fill:#555;font-size:13px">Библиотека</text>
  <rect x="1140.5" y="347" width="16" height="5" class="door"/>
  <rect x="1239" y="350" width="121" height="220" class="room" data-room="112" data-type="service" rx="2"/>
  <text x="1299.5" y="450" class="room-num">112</text>
  <text x="1299.5" y="472" class="dept-label" style="fill:#555;font-size:13px">Буфет</text>
  <rect x="1291.5" y="347" width="16" height="5" class="door"/>
  <rect x="1360" y="350" width="121" height="220" class="room" data-room="114" data-type="classroom" rx="2"/>
  <text x="1420.5" y="450" class="room-num">114</text>
  <text x="1420.5" y="472" class="dept-label" style="fill:#555;font-size:13px">Аудитория</text>
  <rect x="1412.5" y="347" width="16" height="5" class="door"/>
  <rect x="1481" y="350" width="181" height="220" class="room" data-room="116" data-type="classroom" rx="2"/>
  <text x="1571.5" y="450" class="room-num">116</text>
  <text x="1571.5" y="472" class="dept-label" style="fill:#555;font-size:13px">Учеб. отдел</text>
  <rect x="1563.5" y="347" width="16" height="5" class="door"/>
  <rect x="1662" y="350" width="181" height="220" class="room" data-room="118" data-type="service" rx="2"/>
  <text x="1812.5" y="450" class="room-num">118</text>
  <text x="1812.5" y="468" class="dept-label" style="fill:#555;font-size:13px">Зал</text>
  <text x="1812.5" y="480" class="dept-label" style="fill:#555;font-size:13px">заседаний</text>
  <rect x="1804.5" y="347" width="16" height="5" class="door"/>
  <rect x="1903.0" y="350" width="121" height="220" class="room" data-room="120" data-type="classroom" rx="2"/>
  <text x="1963.5" y="450" class="room-num">120</text>
  <text x="1963.5" y="472" class="dept-label" style="fill:#555;font-size:13px">Аудитория</text>
  <rect x="1955.5" y="347" width="16" height="5" class="door"/>
  <rect x="2024.0" y="350" width="121" height="220" class="room" data-room="122" data-type="classroom" rx="2"/>
  <text x="2084.5" y="450" class="room-num">122</text>
  <text x="2084.5" y="472" class="dept-label" style="fill:#555;font-size:13px">Аудитория</text>
  <rect x="2076.5" y="347" width="16" height="5" class="door"/>


  <!-- ЛЕСТНИЦЫ -->
  <rect x="493" y="350" width="60" height="220" class="stairs" data-type="stairs" rx="3"/>
  <text x="523" y="460" class="label" style="font-size:14px;fill:#666;transform:rotate(-90deg);transform-origin:523px 460px;transform-box:view-box">Лестница</text>
  <line x1="498" y1="380" x2="548" y2="380" stroke="#bbb" stroke-width="0.5"/>
  <line x1="498" y1="410" x2="548" y2="410" stroke="#bbb" stroke-width="0.5"/>
  <line x1="498" y1="440" x2="548" y2="440" stroke="#bbb" stroke-width="0.5"/>
  <line x1="498" y1="470" x2="548" y2="470" stroke="#bbb" stroke-width="0.5"/>
  <line x1="498" y1="500" x2="548" y2="500" stroke="#bbb" stroke-width="0.5"/>
  <line x1="498" y1="530" x2="548" y2="530" stroke="#bbb" stroke-width="0.5"/>
  <rect x="1662" y="350" width="60" height="220" class="stairs" data-type="stairs" rx="3"/>
  <text x="1692" y="460" class="label" style="font-size:14px;fill:#666;transform:rotate(-90deg);transform-origin:1692px 460px;transform-box:view-box">Лестница</text>
  <line x1="1667" y1="380" x2="1717" y2="380" stroke="#bbb" stroke-width="0.5"/>
  <line x1="1667" y1="410" x2="1717" y2="410" stroke="#bbb" stroke-width="0.5"/>
  <line x1="1667" y1="440" x2="1717" y2="440" stroke="#bbb" stroke-width="0.5"/>
  <line x1="1667" y1="470" x2="1717" y2="470" stroke="#bbb" stroke-width="0.5"/>
  <line x1="1667" y1="500" x2="1717" y2="500" stroke="#bbb" stroke-width="0.5"/>
  <line x1="1667" y1="530" x2="1717" y2="530" stroke="#bbb" stroke-width="0.5"/>

  <!-- СТЕНЫ -->
  <rect x="8" y="48" width="2139" height="524" class="wall" rx="4"/>
  <line x1="10" y1="270" x2="2145" y2="270" class="inner-wall"/>
  <line x1="10" y1="350" x2="2145" y2="350" class="inner-wall"/>
  <line x1="138.2" y1="50" x2="138.2" y2="270" class="inner-wall"/>
  <line x1="330.0" y1="50" x2="330.0" y2="270" class="inner-wall"/>
  <line x1="458.2" y1="50" x2="458.2" y2="270" class="inner-wall"/>
  <line x1="618.2" y1="50" x2="618.2" y2="270" class="inner-wall"/>
  <line x1="746.4" y1="50" x2="746.4" y2="270" class="inner-wall"/>
  <line x1="938.2" y1="50" x2="938.2" y2="270" class="inner-wall"/>
  <line x1="1050.5" y1="50" x2="1050.5" y2="270" class="inner-wall"/>
  <line x1="1162.8" y1="50" x2="1162.8" y2="270" class="inner-wall"/>
  <line x1="1354.6" y1="50" x2="1354.6" y2="270" class="inner-wall"/>
  <line x1="1442.5" y1="50" x2="1442.5" y2="270" class="inner-wall"/>
  <line x1="1634.3" y1="50" x2="1634.3" y2="270" class="inner-wall"/>
  <line x1="1762.5" y1="50" x2="1762.5" y2="270" class="inner-wall"/>
  <line x1="1890.7" y1="50" x2="1890.7" y2="270" class="inner-wall"/>
  <line x1="2018.9" y1="50" x2="2018.9" y2="270" class="inner-wall"/>
  <line x1="131.0" y1="350" x2="131.0" y2="570" class="inner-wall"/>
  <line x1="312.0" y1="350" x2="312.0" y2="570" class="inner-wall"/>
  <line x1="553" y1="350" x2="553" y2="570" class="inner-wall"/>
  <line x1="636" y1="350" x2="636" y2="570" class="inner-wall"/>
  <line x1="779" y1="350" x2="779" y2="570" class="inner-wall"/>
  <line x1="922" y1="350" x2="922" y2="570" class="inner-wall"/>
  <line x1="1058" y1="350" x2="1058" y2="570" class="inner-wall"/>
  <line x1="1239" y1="350" x2="1239" y2="570" class="inner-wall"/>
  <line x1="1360" y1="350" x2="1360" y2="570" class="inner-wall"/>
  <line x1="1481" y1="350" x2="1481" y2="570" class="inner-wall"/>
  <line x1="1662" y1="350" x2="1662" y2="570" class="inner-wall"/>
  <line x1="1903.0" y1="350" x2="1903.0" y2="570" class="inner-wall"/>
  <line x1="2024.0" y1="350" x2="2024.0" y2="570" class="inner-wall"/>

  <line x1="493" y1="350" x2="493" y2="570" class="inner-wall"/>
  <line x1="1722" y1="350" x2="1722" y2="570" class="inner-wall"/>

</svg>