<?xml version="1.0" encoding="UTF-8"?>
<svg xmlns="http://www.w3.org/2000/svg" viewBox="0 0 2155 680" width="2155" height="680">
  <defs>
    <style>
  .wall{fill:none;stroke:#4a4a4a;stroke-width:3;stroke-linecap:round}
  .inner-wall{fill:none;stroke:#6a6a6a;stroke-width:1.5;stroke-linecap:round}
  .room{fill:#F5F5F5;stroke:#BDBDBD;stroke-width:1;cursor:pointer;transition:fill .2s}
  .room:hover{fill:#EEEEEE}
  .room.active{fill:#E0E0E0;stroke:#757575;stroke-width:2}
  .corridor{fill:#f5f5f5;stroke:#ddd;stroke-width:1}
  .stairs{fill:#e8e8e8;stroke:#aaa;stroke-width:1}
  .toilet{fill:#E0F2F1;stroke:#4DB6AC;stroke-width:1.5;cursor:pointer;transition:fill .2s}
  .toilet:hover{fill:#B2DFDB}
  .toilet.active{fill:#80CBC4;stroke:#00897B;stroke-width:2}
  .special{fill:#FCE4EC;stroke:#F48FB1;stroke-width:1.5;cursor:pointer;transition:fill .2s}
  .special:hover{fill:#F8BBD0}
  .special.active{fill:#F48FB1;stroke:#C2185B;stroke-width:2}
  .service{fill:#fff3e0;stroke:#ffb74d;stroke-width:1}
  .label{font-family:'Segoe UI',Arial,sans-serif;font-size:10px;fill:#333;text-anchor:middle;dominant-baseline:middle;pointer-events:none}
  .room-num{font-family:'Segoe UI',Arial,sans-serif;font-size:11px;fill:#333;text-anchor:middle;dominant-baseline:middle;pointer-events:none;font-weight:700}
  .dept-label{font-family:'Segoe UI',Arial,sans-serif;font-size:7.5px;fill:#555;text-anchor:middle;dominant-baseline:middle;pointer-events:none}
  .floor-label{font-family:'Segoe UI',Arial,sans-serif;font-size:16px;fill:#333;font-weight:800}
  .door{fill:#fff;stroke:#999;stroke-width:1}
  .atif-color{fill:#E3F2FD;stroke:#1565C0;stroke-width:1.5;cursor:pointer;transition:fill .2s}
  .atif-color:hover{fill:#BBDEFB}
  .atif-color.active{fill:#90CAF9;stroke:#1565C0;stroke-width:2}
  .itsu-color{fill:#E8F5E9;stroke:#2E7D32;stroke-width:1.5;cursor:pointer;transition:fill .2s}
  .itsu-color:hover{fill:#C8E6C9}
  .itsu-color.active{fill:#A5D6A7;stroke:#2E7D32;stroke-width:2}
  .ino-color{fill:#F3E5F5;stroke:#6A1B9A;stroke-width:1.5;cursor:pointer;transition:fill .2s}
  .ino-color:hover{fill:#E1BEE7}
  .ino-color.active{fill:#CE93D8;stroke:#6A1B9A;stroke-width:2}
  .lab-color{fill:#FFF8E1;stroke:#F9A825;stroke-width:1.5;cursor:pointer;transition:fill .2s}
  .lab-color:hover{fill:#FFECB3}
  .lab-color.active{fill:#FFD54F;stroke:#F9A825;stroke-width:2}
  .tech-color{fill:#ECEFF1;stroke:#546E7A;stroke-width:1.5;cursor:pointer;transition:fill .2s}
  .tech-color:hover{fill:#CFD8DC}
  .tech-color.active{fill:#B0BEC5;stroke:#546E7A;stroke-width:2}
    </style>
  </defs>

  <rect width="2155" height="680" fill="white"/>
  <text x="20" y="25" class="floor-label">5 этаж</text>

  <!-- КОРИДОР -->
  <rect x="70" y="270" width="2015" height="80" class="corridor" rx="2"/>
  <text x="1077.5" y="310" class="label" style="font-size:13px;fill:#aaa">К О Р И Д О Р</text>


  <!-- ВЕРХНИЙ РЯД (НЕЧЁТНЫЕ) -->
  <rect x="70" y="50" width="121" height="220" class="room lab-color" data-room="501" data-type="lab" rx="2"/>
  <text x="130.5" y="150" class="room-num">501</text>
  <text x="130.5" y="168" class="dept-label" style="fill:#E65100;font-size:7.5px">Лаб. станков</text>
  <text x="130.5" y="180" class="dept-label" style="fill:#E65100;font-size:7.5px">и инструментов</text>
  <rect x="122.5" y="268" width="16" height="5" class="door"/>
  <rect x="191" y="50" width="121" height="220" class="room lab-color" data-room="503" data-type="lab" rx="2"/>
  <text x="251.5" y="150" class="room-num">503</text>
  <text x="251.5" y="168" class="dept-label" style="fill:#E65100;font-size:7.5px">Лаб. сварочных</text>
  <text x="251.5" y="180" class="dept-label" style="fill:#E65100;font-size:7.5px">технологий</text>
  <rect x="243.5" y="268" width="16" height="5" class="door"/>
  <rect x="312" y="50" width="121" height="220" class="room lab-color" data-room="505" data-type="lab" rx="2"/>
  <text x="372.5" y="150" class="room-num">505</text>
  <text x="372.5" y="168" class="dept-label" style="fill:#E65100;font-size:7.5px">Лаб. литейного</text>
  <text x="372.5" y="180" class="dept-label" style="fill:#E65100;font-size:7.5px">производства</text>
  <rect x="364.5" y="268" width="16" height="5" class="door"/>
  <rect x="433" y="50" width="121" height="220" class="room lab-color" data-room="507" data-type="lab" rx="2"/>
  <text x="493.5" y="150" class="room-num">507</text>
  <text x="493.5" y="168" class="dept-label" style="fill:#E65100;font-size:7.5px">Лаб. испытаний</text>
  <text x="493.5" y="180" class="dept-label" style="fill:#E65100;font-size:7.5px">авиац. двигат.</text>
  <rect x="485.5" y="268" width="16" height="5" class="door"/>
  <rect x="554" y="50" width="121" height="220" class="room lab-color" data-room="509" data-type="lab" rx="2"/>
  <text x="614.5" y="150" class="room-num">509</text>
  <text x="614.5" y="168" class="dept-label" style="fill:#E65100;font-size:7.5px">Лаб. электроники</text>
  <text x="614.5" y="180" class="dept-label" style="fill:#E65100;font-size:7.5px">и радиоэлектр.</text>
  <rect x="606.5" y="268" width="16" height="5" class="door"/>
  <rect x="675" y="50" width="121" height="220" class="room lab-color" data-room="511" data-type="lab" rx="2"/>
  <text x="735.5" y="150" class="room-num">511</text>
  <text x="735.5" y="168" class="dept-label" style="fill:#E65100;font-size:7.5px">Компьютерный</text>
  <text x="735.5" y="180" class="dept-label" style="fill:#E65100;font-size:7.5px">класс</text>
  <rect x="727.5" y="268" width="16" height="5" class="door"/>
  <rect x="796" y="50" width="121" height="220" class="room tech-color" data-room="513" data-type="tech" rx="2"/>
  <text x="856.5" y="150" class="room-num">513</text>
  <text x="856.5" y="172" class="dept-label" style="fill:#37474F;font-size:7.5px">Серверная</text>
  <rect x="848.5" y="268" width="16" height="5" class="door"/>
  <rect x="917" y="50" width="121" height="220" class="room lab-color" data-room="515" data-type="lab" rx="2"/>
  <text x="977.5" y="150" class="room-num">515</text>
  <text x="977.5" y="168" class="dept-label" style="fill:#E65100;font-size:7.5px">Лаб. оптики</text>
  <text x="977.5" y="180" class="dept-label" style="fill:#E65100;font-size:7.5px">и физики</text>
  <rect x="969.5" y="268" width="16" height="5" class="door"/>
  <rect x="1038" y="50" width="121" height="220" class="room lab-color" data-room="517" data-type="lab" rx="2"/>
  <text x="1098.5" y="150" class="room-num">517</text>
  <text x="1098.5" y="168" class="dept-label" style="fill:#E65100;font-size:7.5px">Лаб. испытания</text>
  <text x="1098.5" y="180" class="dept-label" style="fill:#E65100;font-size:7.5px">материалов</text>
  <rect x="1090.5" y="268" width="16" height="5" class="door"/>
  <rect x="1159" y="50" width="121" height="220" class="room lab-color" data-room="519" data-type="lab" rx="2"/>
  <text x="1219.5" y="150" class="room-num">519</text>
  <text x="1219.5" y="168" class="dept-label" style="fill:#E65100;font-size:7.5px">Лаб. термодин.</text>
  <text x="1219.5" y="180" class="dept-label" style="fill:#E65100;font-size:7.5px">и теплопер.</text>
  <rect x="1211.5" y="268" width="16" height="5" class="door"/>
  <rect x="1280" y="50" width="121" height="220" class="room lab-color" data-room="521" data-type="lab" rx="2"/>
  <text x="1340.5" y="150" class="room-num">521</text>
  <text x="1340.5" y="172" class="dept-label" style="fill:#E65100;font-size:7.5px">Аудитория</text>
  <rect x="1332.5" y="268" width="16" height="5" class="door"/>
  <rect x="1401" y="50" width="121" height="220" class="room lab-color" data-room="523" data-type="lab" rx="2"/>
  <text x="1461.5" y="150" class="room-num">523</text>
  <text x="1461.5" y="172" class="dept-label" style="fill:#E65100;font-size:7.5px">Аудитория</text>
  <rect x="1453.5" y="268" width="16" height="5" class="door"/>
  <rect x="1522" y="50" width="83" height="220" class="toilet" data-type="toilet" rx="2"/>
  <text x="1563.5" y="160" class="dept-label" style="fill:#00695C;font-size:9px;font-weight:600">Туалет</text>
  <rect x="1555.5" y="268" width="16" height="5" class="door"/>
  <rect x="1605" y="50" width="121" height="220" class="room lab-color" data-room="525" data-type="lab" rx="2"/>
  <text x="1665.5" y="150" class="room-num">525</text>
  <text x="1665.5" y="172" class="dept-label" style="fill:#E65100;font-size:7.5px">Лаб. САПР</text>
  <rect x="1657.5" y="268" width="16" height="5" class="door"/>
  <rect x="1726" y="50" width="121" height="220" class="room tech-color" data-room="527" data-type="tech" rx="2"/>
  <text x="1786.5" y="150" class="room-num">527</text>
  <text x="1786.5" y="168" class="dept-label" style="fill:#37474F;font-size:7.5px">Архив /</text>
  <text x="1786.5" y="180" class="dept-label" style="fill:#37474F;font-size:7.5px">Хранилище</text>
  <rect x="1778.5" y="268" width="16" height="5" class="door"/>
  <rect x="1847" y="50" width="121" height="220" class="room tech-color" data-room="529" data-type="tech" rx="2"/>
  <text x="1907.5" y="150" class="room-num">529</text>
  <text x="1907.5" y="168" class="dept-label" style="fill:#37474F;font-size:7.5px">Технические</text>
  <text x="1907.5" y="180" class="dept-label" style="fill:#37474F;font-size:7.5px">помещения</text>
  <rect x="1899.5" y="268" width="16" height="5" class="door"/>
  <rect x="1968" y="50" width="117" height="220" class="room lab-color" data-room="531" data-type="lab" rx="2"/>
  <text x="2026.5" y="150" class="room-num">531</text>
  <text x="2026.5" y="172" class="dept-label" style="fill:#E65100;font-size:7.5px">Аудитория</text>
  <rect x="2018.5" y="268" width="16" height="5" class="door"/>

  <!-- НИЖНИЙ РЯД (ЧЁТНЫЕ) -->
  <rect x="70" y="350" width="108" height="220" class="room lab-color" data-room="500" data-type="lab" rx="2"/>
  <text x="124" y="450" class="room-num">500</text>
  <text x="124" y="472" class="dept-label" style="fill:#E65100;font-size:7.5px">Аудитория</text>
  <rect x="116" y="347" width="16" height="5" class="door"/>
  <rect x="178" y="350" width="108" height="220" class="room lab-color" data-room="502" data-type="lab" rx="2"/>
  <text x="232" y="450" class="room-num">502</text>
  <text x="232" y="472" class="dept-label" style="fill:#E65100;font-size:7.5px">Аудитория</text>
  <rect x="224" y="347" width="16" height="5" class="door"/>
  <rect x="286" y="350" width="108" height="220" class="room lab-color" data-room="504" data-type="lab" rx="2"/>
  <text x="340" y="450" class="room-num">504</text>
  <text x="340" y="472" class="dept-label" style="fill:#E65100;font-size:7.5px">Аудитория</text>
  <rect x="332" y="347" width="16" height="5" class="door"/>
  <rect x="394" y="350" width="108" height="220" class="room lab-color" data-room="506" data-type="lab" rx="2"/>
  <text x="448" y="450" class="room-num">506</text>
  <text x="448" y="472" class="dept-label" style="fill:#E65100;font-size:7.5px">Аудитория</text>
  <rect x="440" y="347" width="16" height="5" class="door"/>
  <rect x="502" y="350" width="108" height="220" class="room lab-color" data-room="508" data-type="lab" rx="2"/>
  <text x="556" y="450" class="room-num">508</text>
  <text x="556" y="472" class="dept-label" style="fill:#E65100;font-size:7.5px">Аудитория</text>
  <rect x="548" y="347" width="16" height="5" class="door"/>
  <rect x="610" y="350" width="74" height="220" class="toilet" data-type="toilet" rx="2"/>
  <text x="647" y="460" class="dept-label" style="fill:#00695C;font-size:9px;font-weight:600">Туалет</text>
  <rect x="639" y="347" width="16" height="5" class="door"/>
  <rect x="684" y="350" width="108" height="220" class="room lab-color" data-room="510" data-type="lab" rx="2"/>
  <text x="738" y="450" class="room-num">510</text>
  <text x="738" y="472" class="dept-label" style="fill:#E65100;font-size:7.5px">Аудитория</text>
  <rect x="730" y="347" width="16" height="5" class="door"/>
  <rect x="792" y="350" width="121" height="220" class="room lab-color" data-room="512" data-type="lab" rx="2"/>
  <text x="852.5" y="450" class="room-num">512</text>
  <text x="852.5" y="472" class="dept-label" style="fill:#E65100;font-size:7.5px">Комп. класс</text>
  <rect x="844.5" y="347" width="16" height="5" class="door"/>
  <rect x="913" y="350" width="148" height="220" class="room tech-color" data-room="514" data-type="tech" rx="2"/>
  <text x="987" y="450" class="room-num">514</text>
  <text x="987" y="468" class="dept-label" style="fill:#37474F;font-size:7.5px">Вычислит.</text>
  <text x="987" y="480" class="dept-label" style="fill:#37474F;font-size:7.5px">центр</text>
  <rect x="979" y="347" width="16" height="5" class="door"/>
  <rect x="1061" y="350" width="121" height="220" class="room lab-color" data-room="516" data-type="lab" rx="2"/>
  <text x="1121.5" y="450" class="room-num">516</text>
  <text x="1121.5" y="472" class="dept-label" style="fill:#E65100;font-size:7.5px">Аудитория</text>
  <rect x="1113.5" y="347" width="16" height="5" class="door"/>
  <rect x="1182" y="350" width="108" height="220" class="room lab-color" data-room="518" data-type="lab" rx="2"/>
  <text x="1236" y="450" class="room-num">518</text>
  <text x="1236" y="472" class="dept-label" style="fill:#E65100;font-size:7.5px">Аудитория</text>
  <rect x="1228" y="347" width="16" height="5" class="door"/>
  <rect x="1290" y="350" width="121" height="220" class="room lab-color" data-room="520" data-type="lab" rx="2"/>
  <text x="1350.5" y="450" class="room-num">520</text>
  <text x="1350.5" y="468" class="dept-label" style="fill:#E65100;font-size:7.5px">Лаб. робото-</text>
  <text x="1350.5" y="480" class="dept-label" style="fill:#E65100;font-size:7.5px">техники</text>
  <rect x="1342.5" y="347" width="16" height="5" class="door"/>
  <rect x="1411" y="350" width="108" height="220" class="room lab-color" data-room="522" data-type="lab" rx="2"/>
  <text x="1465" y="450" class="room-num">522</text>
  <text x="1465" y="472" class="dept-label" style="fill:#E65100;font-size:7.5px">Аудитория</text>
  <rect x="1457" y="347" width="16" height="5" class="door"/>
  <rect x="1519" y="350" width="121" height="220" class="room lab-color" data-room="524" data-type="lab" rx="2"/>
  <text x="1579.5" y="450" class="room-num">524</text>
  <text x="1579.5" y="472" class="dept-label" style="fill:#E65100;font-size:7.5px">Аудитория</text>
  <rect x="1571.5" y="347" width="16" height="5" class="door"/>
  <rect x="1640" y="350" width="121" height="220" class="room lab-color" data-room="526" data-type="lab" rx="2"/>
  <text x="1700.5" y="450" class="room-num">526</text>
  <text x="1700.5" y="468" class="dept-label" style="fill:#E65100;font-size:7.5px">Лаб. автомати-</text>
  <text x="1700.5" y="480" class="dept-label" style="fill:#E65100;font-size:7.5px">зации</text>
  <rect x="1692.5" y="347" width="16" height="5" class="door"/>
  <rect x="1761" y="350" width="108" height="220" class="room tech-color" data-room="528" data-type="tech" rx="2"/>
  <text x="1815" y="450" class="room-num">528</text>
  <text x="1815" y="468" class="dept-label" style="fill:#37474F;font-size:7.5px">Кладовая /</text>
  <text x="1815" y="480" class="dept-label" style="fill:#37474F;font-size:7.5px">Подсобка</text>
  <rect x="1807" y="347" width="16" height="5" class="door"/>
  <rect x="1869" y="350" width="108" height="220" class="room tech-color" data-room="530" data-type="tech" rx="2"/>
  <text x="1923" y="450" class="room-num">530</text>
  <text x="1923" y="468" class="dept-label" style="fill:#37474F;font-size:7.5px">Технич.</text>
  <text x="1923" y="480" class="dept-label" style="fill:#37474F;font-size:7.5px">помещение</text>
  <rect x="1915" y="347" width="16" height="5" class="door"/>
  <rect x="1977" y="350" width="108" height="220" class="room lab-color" data-room="532" data-type="lab" rx="2"/>
  <text x="2031" y="450" class="room-num">532</text>
  <text x="2031" y="472" class="dept-label" style="fill:#E65100;font-size:7.5px">Аудитория</text>
  <rect x="2023" y="347" width="16" height="5" class="door"/>


  <!-- ЛЕСТНИЦЫ -->
  <rect x="590" y="350" width="40" height="220" class="stairs" data-type="stairs" rx="3"/>
  <text x="610" y="460" class="label" style="font-size:13px;fill:#666;transform:rotate(-90deg);transform-origin:610px 460px;transform-box:view-box">Лестница</text>
  <line x1="595" y1="380" x2="625" y2="380" stroke="#bbb" stroke-width="0.5"/>
  <line x1="595" y1="410" x2="625" y2="410" stroke="#bbb" stroke-width="0.5"/>
  <line x1="595" y1="440" x2="625" y2="440" stroke="#bbb" stroke-width="0.5"/>
  <line x1="595" y1="470" x2="625" y2="470" stroke="#bbb" stroke-width="0.5"/>
  <line x1="595" y1="500" x2="625" y2="500" stroke="#bbb" stroke-width="0.5"/>
  <line x1="595" y1="530" x2="625" y2="530" stroke="#bbb" stroke-width="0.5"/>
  <rect x="1391" y="350" width="40" height="220" class="stairs" data-type="stairs" rx="3"/>
  <text x="1411" y="460" class="label" style="font-size:13px;fill:#666;transform:rotate(-90deg);transform-origin:1411px 460px;transform-box:view-box">Лестница</text>
  <line x1="1396" y1="380" x2="1426" y2="380" stroke="#bbb" stroke-width="0.5"/>
  <line x1="1396" y1="410" x2="1426" y2="410" stroke="#bbb" stroke-width="0.5"/>
  <line x1="1396" y1="440" x2="1426" y2="440" stroke="#bbb" stroke-width="0.5"/>
  <line x1="1396" y1="470" x2="1426" y2="470" stroke="#bbb" stroke-width="0.5"/>
  <line x1="1396" y1="500" x2="1426" y2="500" stroke="#bbb" stroke-width="0.5"/>
  <line x1="1396" y1="530" x2="1426" y2="530" stroke="#bbb" stroke-width="0.5"/>

  <!-- СТЕНЫ -->
  <rect x="8" y="48" width="2139" height="524" class="wall" rx="4"/>
  <line x1="70" y1="270" x2="2085" y2="270" class="inner-wall"/>
  <line x1="70" y1="350" x2="2085" y2="350" class="inner-wall"/>
  <line x1="191" y1="50" x2="191" y2="270" class="inner-wall"/>
  <line x1="312" y1="50" x2="312" y2="270" class="inner-wall"/>
  <line x1="433" y1="50" x2="433" y2="270" class="inner-wall"/>
  <line x1="554" y1="50" x2="554" y2="270" class="inner-wall"/>
  <line x1="675" y1="50" x2="675" y2="270" class="inner-wall"/>
  <line x1="796" y1="50" x2="796" y2="270" class="inner-wall"/>
  <line x1="917" y1="50" x2="917" y2="270" class="inner-wall"/>
  <line x1="1038" y1="50" x2="1038" y2="270" class="inner-wall"/>
  <line x1="1159" y1="50" x2="1159" y2="270" class="inner-wall"/>
  <line x1="1280" y1="50" x2="1280" y2="270" class="inner-wall"/>
  <line x1="1401" y1="50" x2="1401" y2="270" class="inner-wall"/>
  <line x1="1522" y1="50" x2="1522" y2="270" class="inner-wall"/>
  <line x1="1605" y1="50" x2="1605" y2="270" class="inner-wall"/>
  <line x1="1726" y1="50" x2="1726" y2="270" class="inner-wall"/>
  <line x1="1847" y1="50" x2="1847" y2="270" class="inner-wall"/>
  <line x1="1968" y1="50" x2="1968" y2="270" class="inner-wall"/>
  <line x1="178" y1="350" x2="178" y2="570" class="inner-wall"/>
  <line x1="286" y1="350" x2="286" y2="570" class="inner-wall"/>
  <line x1="394" y1="350" x2="394" y2="570" class="inner-wall"/>
  <line x1="502" y1="350" x2="502" y2="570" class="inner-wall"/>
  <line x1="610" y1="350" x2="610" y2="570" class="inner-wall"/>
  <line x1="684" y1="350" x2="684" y2="570" class="inner-wall"/>
  <line x1="792" y1="350" x2="792" y2="570" class="inner-wall"/>
  <line x1="913" y1="350" x2="913" y2="570" class="inner-wall"/>
  <line x1="1061" y1="350" x2="1061" y2="570" class="inner-wall"/>
  <line x1="1182" y1="350" x2="1182" y2="570" class="inner-wall"/>
  <line x1="1290" y1="350" x2="1290" y2="570" class="inner-wall"/>
  <line x1="1411" y1="350" x2="1411" y2="570" class="inner-wall"/>
  <line x1="1519" y1="350" x2="1519" y2="570" class="inner-wall"/>
  <line x1="1640" y1="350" x2="1640" y2="570" class="inner-wall"/>
  <line x1="1761" y1="350" x2="1761" y2="570" class="inner-wall"/>
  <line x1="1869" y1="350" x2="1869" y2="570" class="inner-wall"/>
  <line x1="1977" y1="350" x2="1977" y2="570" class="inner-wall"/>

  <line x1="590" y1="350" x2="590" y2="570" class="inner-wall"/>
  <line x1="630" y1="350" x2="630" y2="570" class="inner-wall"/>

  <line x1="1391" y1="350" x2="1391" y2="570" class="inner-wall"/>
  <line x1="1431" y1="350" x2="1431" y2="570" class="inner-wall"/>

</svg>